<?xml version="1.0" encoding="utf-8"?>
<!-- Generator: Adobe Illustrator 15.1.0, SVG Export Plug-In . SVG Version: 6.00 Build 0)  -->
<!DOCTYPE svg PUBLIC "-//W3C//DTD SVG 1.1//EN" "http://www.w3.org/Graphics/SVG/1.1/DTD/svg11.dtd">
<svg version="1.1" id="Layer_1" xmlns="http://www.w3.org/2000/svg" xmlns:xlink="http://www.w3.org/1999/xlink" x="0px" y="0px"
	 width="289px" height="134px" viewBox="0 0 289 134" enable-background="new 0 0 289 134" xml:space="preserve">
<g>
	<path fill="#16242F" d="M8.122,33.402l2.896-1.493c2.972-1.533,4.705-1.192,6.646,2.574l1.409-0.727
		c-0.977-1.831-2.364-4.586-3.175-6.536c-1.125,0.775-4.149,2.333-5.25,2.902c-3.588,1.847-5.65,2.944-6.137,3.193
		C4.024,33.567,0.409,35.367,0,35.579l0.779,1.51l1.641-0.844c0.922-0.476,1.426-0.38,1.992,0.592
		c0.857,1.474,5.189,9.878,6.091,11.814c0.436,0.911,0.473,1.736-0.707,2.342l-1.461,0.754l0.805,1.563c0,0,2.999-1.61,4.689-2.483
		c1.692-0.871,4.742-2.379,4.742-2.379l-0.806-1.562l-1.82,0.937c-1.179,0.608-1.83,0.1-2.317-0.783
		c-0.474-0.792-1.571-2.92-2.721-5.151l1.283-0.659c2.217-1.046,3.576-0.676,4.579,1.271l0.265,0.513l1.333-0.688
		c-0.751-1.266-1.61-2.932-2.192-4.06c-0.567-1.102-1.269-2.523-1.957-3.985l-1.384,0.712l0.291,0.562
		c1.109,2.153,0.223,3.324-1.932,4.435l-0.998,0.514c-1.189-2.306-2.339-4.535-2.658-5.279C7.195,34.497,7.275,33.836,8.122,33.402z
		"/>
	<path fill="#16242F" d="M46.232,25.742c-2.4-6.244-6.8-8.6-12.773-6.3c-5.221,2.006-7.68,6.939-5.248,13.262
		c2.392,6.217,6.857,8.67,12.805,6.382C46.237,37.077,48.654,32.039,46.232,25.742z M40.446,37.605
		c-4.036,1.554-6.324-0.377-8.601-6.298c-2.165-5.626-1.487-9.006,2.174-10.414c3.821-1.47,6.309,0.26,8.607,6.235
		C44.769,32.699,44.43,36.075,40.446,37.605z"/>
	<path fill="#16242F" d="M66.057,28.598L64.72,28.96c-0.972,0.262-1.629-0.069-2.037-1.243c-0.236-0.653-0.879-2.928-1.541-5.379
		l1.95-0.525c1.865-0.503,3.386-0.287,4.387,2.759c1.134,3.426,2.442,5.284,6.145,4.285c3.479-0.939,3.077-4.206,1.438-7.288
		l-1.243,0.486c1.173,2.46,1.536,4.363,0.256,4.709c-0.946,0.255-1.654-0.152-3.039-3.512c-0.783-1.908-1.866-2.932-4.16-2.908
		c2.422-0.983,3.972-3.432,3.221-6.215c-0.923-3.424-4.027-4.409-8.732-3.139c-1.169,0.316-3.417,0.953-4.697,1.298
		c-0.53,0.143-4.441,1.138-4.889,1.259l0.445,1.643l1.782-0.48c1.002-0.27,1.475-0.069,1.823,1.001
		c0.527,1.62,3.141,11.309,3.479,12.89c0.274,1.24-0.198,1.815-1.449,2.153l-1.337,0.36l0.458,1.699c0,0,3.019-0.876,4.745-1.341
		c1.476-0.397,4.776-1.228,4.776-1.228L66.057,28.598z M59.054,14.271c-0.161-0.704-0.023-1.189,0.785-1.407l1.448-0.39
		c2.95-0.797,4.363-0.104,5.123,2.708c0.766,2.839-0.061,4.316-3.374,5.211l-2.254,0.609C60.022,18.19,59.283,15.343,59.054,14.271z
		"/>
	<path fill="#16242F" d="M82.589,7.678c1.024-0.172,1.447,0.075,1.721,1.171c0.398,1.658,2.077,11.551,2.229,13.133
		c0.083,1.009-0.08,1.768-1.388,1.99l-1.592,0.271l0.294,1.733c0,0,3.487-0.649,4.823-0.877l8.158-1.385
		c1.224-0.208,4.008-0.68,5.364-0.793c-0.415-2.446-0.851-5.531-1.009-7.668l-1.733,0.294c0.685,4.038-0.034,6.002-3.589,6.605
		l-4.064,0.691c-0.796,0.136-1.489-0.158-1.729-1.227c-0.197-0.816-0.669-3.425-1.128-6.126l1.336-0.227
		c2.758-0.469,3.933,0.415,4.404,2.85l0.058,0.341l1.506-0.255c-0.331-1.437-0.5-2.431-0.857-4.535
		c-0.352-2.075-0.406-2.739-0.658-4.393l-1.563,0.267l0.072,0.427c0.433,2.558-0.634,3.5-3.107,3.92l-1.421,0.241
		c-0.444-2.615-0.835-5.093-0.909-5.87c-0.078-0.806,0.171-1.403,1.108-1.563l4.265-0.723c3.412-0.579,4.624,0.355,5.323,4.477
		l1.534-0.261c-0.377-2.042-0.859-5.059-1.04-7.163c-1.308,0.397-4.634,0.961-5.855,1.169c-3.98,0.676-7.103,1.235-7.643,1.326
		c-0.541,0.093-4.53,0.711-4.985,0.788l0.285,1.678L82.589,7.678z"/>
	<path fill="#16242F" d="M120.687,19.259l-2.039,0.165c-1.321,0.106-1.726-0.612-1.836-1.615c-0.133-0.914-0.327-3.299-0.528-5.798
		l1.437-0.116c2.449-0.114,3.56,0.751,3.736,2.934l0.047,0.575l1.494-0.121c-0.205-1.458-0.356-3.327-0.459-4.59
		c-0.1-1.235-0.198-2.817-0.271-4.43l-1.552,0.125l0.052,0.631c0.194,2.414-1.075,3.154-3.489,3.348l-1.119,0.091
		c-0.21-2.585-0.414-5.086-0.421-5.895c-0.037-0.806,0.293-1.382,1.241-1.46l3.247-0.264c3.333-0.266,4.801,0.712,5.142,4.935
		l1.581-0.127c-0.197-2.068-0.417-5.143-0.415-7.254c-1.337,0.283-4.727,0.557-5.961,0.658c-4.022,0.323-6.347,0.542-6.893,0.585
		c-0.547,0.047-4.575,0.313-5.033,0.351l0.137,1.695l1.839-0.148c1.035-0.085,1.461,0.2,1.609,1.315
		c0.224,1.688,0.987,11.111,1.074,13.244c0.052,1.008-0.231,1.782-1.553,1.889l-1.638,0.133l0.142,1.752
		c0,0,3.385-0.333,5.281-0.486c1.896-0.153,5.291-0.37,5.291-0.37L120.687,19.259z"/>
	<path fill="#16242F" d="M135.72,20.159c1.586-0.017,4.439,0.008,4.439,0.008l0.01-1.757l-1.241,0.012
		c-1.873,0.022-2.059-1.071-1.587-2.691c0.083-0.318,0.307-0.983,0.586-1.794c2.19-0.08,5.994-0.125,8.1-0.09l0.652,1.723
		c0.685,1.781,0.204,2.767-1.18,2.78l-1.269,0.015l-0.008,1.759c0,0,3.314-0.097,5.158-0.116c1.846-0.02,5.133,0.001,5.133,0.001
		l-0.02-1.759l-1.297,0.014c-1.183,0.014-1.766-0.643-2.535-2.334C149.895,14.236,145.42,3.39,144.229,0
		c0-0.002-1.036,0.097-1.612,0.103c-0.577,0.007-1.646-0.068-1.646-0.068c-1.172,3.389-5.029,14.271-5.702,16.035
		c-0.672,1.767-1.328,2.408-2.941,2.426l-1.068,0.012l0.021,1.758C131.281,20.267,134.134,20.177,135.72,20.159z M141.783,2.968
		c0.859,2.039,2.522,6.315,3.681,9.386c-1.991,0.052-4.988,0.086-7.035,0.079C139.491,9.335,140.998,5.023,141.783,2.968z"/>
	<path fill="#16242F" d="M161.643,4.977c0.211-1.662,1.006-2.643,3.248-2.475l2.271,0.169c-0.197,3.799-0.895,13.2-1.096,14.717
		c-0.139,1.088-0.588,1.691-1.853,1.598l-1.639-0.122l-0.131,1.753c0,0,3.224,0.181,5.034,0.317c1.812,0.136,4.999,0.43,4.999,0.43
		l0.13-1.755l-1.752-0.129c-1.294-0.095-1.506-0.748-1.482-1.845c0.027-1.531,0.727-10.931,1.066-14.721l2.328,0.173
		c2.241,0.168,2.883,1.256,2.846,2.929l-0.096,2.853l1.838,0.138c0.048-1.76,0.418-5.606,0.694-7.35
		c-1.071,0.008-1.879-0.023-4.437-0.214l-9.314-0.691c-2.156-0.16-3.65-0.301-4.477-0.449c0.014,1.764-0.187,5.623-0.404,7.37
		l1.896,0.14L161.643,4.977z"/>
	<path fill="#16242F" d="M191.409,20.748c0.105-0.976,0.55-3.591,1.009-6.292c2.483,0.363,6.602,1.063,9.3,1.55
		c-0.465,2.729-0.936,5.34-1.128,6.302s-0.563,1.074-1.871,0.853l-1.619-0.275l-0.293,1.733c0,0,3.19,0.484,4.952,0.783
		c1.765,0.3,4.909,0.893,4.909,0.893l0.296-1.735l-1.621-0.274c-1.308-0.223-1.619-0.452-1.483-1.424
		c0.276-2.147,1.955-12.039,2.325-13.702c0.246-1.098,0.698-1.342,1.72-1.168l1.819,0.309l0.283-1.677
		c-0.454-0.082-3.169-0.456-4.931-0.755c-1.762-0.297-4.931-0.923-4.931-0.923l-0.286,1.681l1.791,0.303
		c1.024,0.174,1.367,0.553,1.264,1.676c-0.071,0.78-0.496,3.281-0.947,5.923c-2.702-0.429-6.824-1.13-9.292-1.578
		c0.447-2.642,0.871-5.144,1.059-5.902c0.247-1.1,0.696-1.345,1.721-1.172l1.791,0.306l0.284-1.678
		c-0.457-0.082-3.169-0.453-4.934-0.753c-1.76-0.298-4.901-0.919-4.901-0.919l-0.286,1.681l1.792,0.302
		c1.024,0.175,1.369,0.555,1.236,1.673c-0.2,1.693-1.878,11.584-2.325,13.702c-0.199,0.99-0.562,1.075-1.87,0.853l-1.621-0.275
		l-0.294,1.735c0,0,3.193,0.481,4.953,0.782c1.765,0.299,4.911,0.891,4.911,0.891l0.293-1.732l-1.618-0.278
		C191.557,21.944,191.273,21.719,191.409,20.748z"/>
	<path fill="#16242F" d="M224.365,10.214c-0.528-0.144-4.405-1.273-4.85-1.397l-0.451,1.641l1.75,0.482
		c1.002,0.276,1.278,0.683,1.063,1.789c-0.341,1.67-3.009,11.347-3.542,12.846c-0.351,0.949-0.821,1.566-2.1,1.215l-1.558-0.429
		l-0.467,1.695c0,0,3.434,0.887,4.741,1.246l7.979,2.202c1.197,0.328,3.919,1.081,5.198,1.552c0.658-2.392,1.569-5.37,2.332-7.374
		l-1.695-0.468c-1.091,3.947-2.574,5.423-6.049,4.466l-3.977-1.097c-0.777-0.215-1.283-0.771-1.046-1.843
		c0.165-0.823,0.844-3.387,1.572-6.028l1.305,0.359c2.698,0.744,3.389,2.041,2.784,4.447l-0.091,0.333l1.473,0.407
		c0.307-1.44,0.575-2.414,1.143-4.469c0.561-2.03,0.79-2.654,1.264-4.258l-1.53-0.425l-0.113,0.417
		c-0.69,2.502-2.059,2.902-4.477,2.236l-1.39-0.384c0.706-2.558,1.399-4.969,1.663-5.704c0.27-0.763,0.748-1.199,1.666-0.946
		l4.171,1.15c3.337,0.919,4.037,2.28,2.927,6.311l1.501,0.415c0.523-2.01,1.364-4.948,2.09-6.932
		c-1.353-0.194-4.604-1.09-5.802-1.419C227.961,11.176,224.894,10.36,224.365,10.214z"/>
	<path fill="#16242F" d="M256.305,20.527c-1.128-0.441-3.314-1.266-4.548-1.747c-0.511-0.2-4.25-1.725-4.68-1.893l-0.619,1.584
		l1.718,0.674c0.968,0.377,1.229,0.819,0.871,1.888c-0.538,1.616-4.193,10.962-4.861,12.433c-0.517,1.163-1.239,1.344-2.448,0.871
		l-1.288-0.503l-0.64,1.639c0,0,2.946,1.09,4.612,1.74c1.424,0.558,4.57,1.851,4.57,1.851l0.622-1.584l-1.29-0.504
		c-0.94-0.368-1.271-1.023-0.901-2.21c0.2-0.664,1.034-2.878,1.957-5.24l1.881,0.733c1.799,0.705,2.895,1.785,1.891,4.828
		c-1.126,3.43-1.178,5.701,2.392,7.099c3.358,1.313,4.975-1.553,5.49-5.006l-1.288-0.351c-0.521,2.676-1.359,4.424-2.594,3.94
		c-0.913-0.356-1.241-1.104-0.357-4.628c0.506-2.001,0.241-3.467-1.617-4.812c2.535,0.649,5.235-0.4,6.286-3.085
		C262.754,24.94,260.844,22.304,256.305,20.527z M257.87,26.897c-1.071,2.742-2.614,3.439-5.81,2.188l-2.177-0.85
		c1.061-2.712,2.162-5.442,2.613-6.441c0.289-0.66,0.688-0.967,1.466-0.664l1.397,0.545
		C258.208,22.788,258.931,24.186,257.87,26.897z"/>
	<path fill="#16242F" d="M287.647,34.791c-0.479,0.663-1.051,1.077-2.033-0.283c-0.378-0.523-1.488-1.884-3.455-2.912
		c-4.344-2.273-7.584-0.681-9.106,2.231c-1.538,2.939-0.454,5.718,3.215,8.287c3.653,2.594,5.116,4.336,3.996,6.482
		c-1.057,2.02-3.418,2.183-6.306,0.674c-3.63-1.898-4.573-4.572-3.604-8.229L269,40.331c-0.821,2.01-2.088,4.245-3.423,5.921
		l1.354,0.708c0.556-0.75,1.315-1.458,2.182-0.063c1.039,1.683,2.219,2.788,4.137,3.79c4.087,2.137,7.853,1.342,9.684-2.158
		c1.711-3.27,1.241-5.922-3.442-9.219c-3.426-2.41-4.61-3.94-3.662-5.755c0.816-1.557,2.759-2.039,5.466-0.622
		c3.016,1.577,4.033,3.865,3.142,7.435l1.252,0.655c0.663-1.704,2.09-4.245,3.312-5.525L287.647,34.791z"/>
	<polygon fill="#16242F" points="106.973,52.876 108.544,52.876 108.544,45.601 111.355,45.601 111.355,44.187 104.163,44.187 
		104.163,45.601 106.973,45.601 	"/>
	<polygon fill="#16242F" points="121.445,52.876 123.001,52.876 123.001,44.187 121.445,44.187 121.445,47.799 117.215,47.799 
		117.215,44.187 115.659,44.187 115.659,52.876 117.215,52.876 117.215,49.214 121.445,49.214 	"/>
	<polygon fill="#16242F" points="134.572,51.512 129.495,51.512 129.495,49.177 133.938,49.177 133.938,47.812 129.495,47.812 
		129.495,45.552 134.509,45.552 134.509,44.187 127.937,44.187 127.937,52.876 134.572,52.876 	"/>
	<polygon fill="#16242F" points="153.256,52.876 153.256,44.187 151.725,44.187 151.725,50.196 146.978,44.187 145.535,44.187 
		145.535,52.876 147.064,52.876 147.064,46.694 151.953,52.876 	"/>
	<polygon fill="#16242F" points="164.827,51.512 159.75,51.512 159.75,49.177 164.193,49.177 164.193,47.812 159.75,47.812 
		159.75,45.552 164.764,45.552 164.764,44.187 158.191,44.187 158.191,52.876 164.827,52.876 	"/>
	<polygon fill="#16242F" points="178.118,50.631 175.941,44.162 174.624,44.162 172.447,50.631 170.333,44.187 168.648,44.187 
		171.738,52.938 173.08,52.938 175.258,46.694 177.435,52.938 178.777,52.938 181.867,44.187 180.233,44.187 	"/>
	<polygon fill="#16242F" points="36.491,105.472 38.951,105.472 38.951,111.837 40.323,111.837 40.323,105.472 42.78,105.472 
		42.78,104.233 36.491,104.233 	"/>
	<polygon fill="#16242F" points="55.225,109.87 53.321,104.212 52.17,104.212 50.266,109.87 48.417,104.233 46.943,104.233 
		49.645,111.892 50.819,111.892 52.723,106.428 54.627,111.892 55.801,111.892 58.503,104.233 57.074,104.233 	"/>
	<polygon fill="#16242F" points="64.582,108.601 68.469,108.601 68.469,107.405 64.582,107.405 64.582,105.428 68.966,105.428 
		68.966,104.233 63.221,104.233 63.221,111.837 69.022,111.837 69.022,110.643 64.582,110.643 	"/>
	<polygon fill="#16242F" points="79.375,109.49 75.223,104.233 73.96,104.233 73.96,111.837 75.3,111.837 75.3,106.427 
		79.574,111.837 80.714,111.837 80.714,104.233 79.375,104.233 	"/>
	<polygon fill="#16242F" points="85.476,105.472 87.935,105.472 87.935,111.837 89.307,111.837 89.307,105.472 91.765,105.472 
		91.765,104.233 85.476,104.233 	"/>
	<polygon fill="#16242F" points="99.504,107.6 97.334,104.233 95.729,104.233 98.807,108.839 98.807,111.837 100.18,111.837 
		100.18,108.807 103.258,104.233 101.696,104.233 	"/>
	<polygon fill="#16242F" points="188.857,108.601 192.744,108.601 192.744,107.405 188.857,107.405 188.857,105.428 
		193.242,105.428 193.242,104.233 187.495,104.233 187.495,111.837 193.297,111.837 193.297,110.643 188.857,110.643 	"/>
	<polygon fill="#16242F" points="199.598,104.233 198.235,104.233 198.235,111.837 203.672,111.837 203.672,110.621 
		199.598,110.621 	"/>
	<polygon fill="#16242F" points="209.772,108.601 213.659,108.601 213.659,107.405 209.772,107.405 209.772,105.428 
		214.158,105.428 214.158,104.233 208.413,104.233 208.413,111.837 214.212,111.837 214.212,110.643 209.772,110.643 	"/>
	<polygon fill="#16242F" points="222.329,110.078 219.992,104.233 218.486,104.233 221.71,111.892 222.904,111.892 226.125,104.233 
		224.654,104.233 	"/>
	<polygon fill="#16242F" points="232.14,108.601 236.023,108.601 236.023,107.405 232.14,107.405 232.14,105.428 236.522,105.428 
		236.522,104.233 230.777,104.233 230.777,111.837 236.579,111.837 236.579,110.643 232.14,110.643 	"/>
	<polygon fill="#16242F" points="246.93,109.49 242.778,104.233 241.518,104.233 241.518,111.837 242.857,111.837 242.857,106.427 
		247.13,111.837 248.27,111.837 248.27,104.233 246.93,104.233 	"/>
	<path fill="#16242F" d="M70.53,62.512h-3.305v8.689h3.305c2.786,0,4.711-1.898,4.711-4.356
		C75.241,64.386,73.316,62.512,70.53,62.512z M70.53,69.812h-1.747v-5.909h1.747c1.861,0,3.077,1.254,3.077,2.967
		S72.391,69.812,70.53,69.812z"/>
	<polygon fill="#16242F" points="86.038,69.836 80.961,69.836 80.961,67.502 85.405,67.502 85.405,66.137 80.961,66.137 
		80.961,63.877 85.975,63.877 85.975,62.512 79.404,62.512 79.404,71.202 86.038,71.202 	"/>
	<path fill="#16242F" d="M96.431,68.718c0-1.45-0.974-2.11-2.848-2.557c-1.696-0.397-2.101-0.694-2.101-1.377
		c0-0.583,0.532-1.044,1.443-1.044c0.81,0,1.607,0.311,2.406,0.895l0.835-1.154c-0.898-0.71-1.925-1.093-3.216-1.093
		c-1.76,0-3.026,1.017-3.026,2.532c0,1.613,1.063,2.162,2.95,2.607c1.646,0.373,2,0.707,2,1.342c0,0.67-0.608,1.105-1.57,1.105
		c-1.102,0-1.95-0.412-2.798-1.131l-0.937,1.092c1.064,0.932,2.343,1.391,3.697,1.391C95.128,71.326,96.431,70.357,96.431,68.718z"
		/>
	<rect x="100.634" y="62.512" fill="#16242F" width="1.557" height="8.691"/>
	<path fill="#16242F" d="M110.964,67.676h2.265v1.627c-0.543,0.397-1.302,0.656-2.139,0.656c-1.811,0-3.014-1.314-3.014-3.114
		c0-1.688,1.241-3.079,2.875-3.079c1.127,0,1.798,0.359,2.481,0.93l0.987-1.152c-0.911-0.758-1.861-1.18-3.405-1.18
		c-2.671,0-4.572,2.061-4.572,4.506c0,2.545,1.825,4.482,4.597,4.482c1.571,0,2.824-0.621,3.697-1.353v-3.651h-3.772V67.676z"/>
	<polygon fill="#16242F" points="125.231,68.521 120.484,62.512 119.041,62.512 119.041,71.202 120.571,71.202 120.571,65.019 
		125.459,71.202 126.763,71.202 126.763,62.512 125.231,62.512 	"/>
	<polygon fill="#16242F" points="143.992,63.902 143.992,62.512 137.396,62.512 137.396,71.201 138.953,71.201 138.953,67.664 
		143.422,67.664 143.422,66.273 138.953,66.273 138.953,63.902 	"/>
	<path fill="#16242F" d="M155.221,65.268c0-1.703-1.252-2.756-3.291-2.756h-3.951v8.689h1.557v-3.029h1.95l2.179,3.029h1.834
		l-2.391-3.289C154.348,67.576,155.221,66.709,155.221,65.268z M151.814,66.82h-2.279v-2.918h2.268c1.15,0,1.836,0.496,1.836,1.451
		C153.639,66.248,152.928,66.82,151.814,66.82z"/>
	<path fill="#16242F" d="M163.664,62.363c-2.722,0-4.646,2.049-4.646,4.506c0,2.459,1.898,4.482,4.621,4.482
		s4.646-2.049,4.646-4.507S166.385,62.363,163.664,62.363z M163.664,69.949c-1.76,0-3.014-1.404-3.014-3.104
		c0-1.702,1.227-3.079,2.988-3.079c1.76,0,3.014,1.403,3.014,3.104C166.652,68.57,165.424,69.949,163.664,69.949z"/>
	<polygon fill="#16242F" points="178.64,68.521 173.892,62.512 172.449,62.512 172.449,71.202 173.981,71.202 173.981,65.019 
		178.869,71.202 180.172,71.202 180.172,62.512 178.64,62.512 	"/>
	<polygon fill="#16242F" points="188.477,71.202 188.477,63.927 191.288,63.927 191.288,62.512 184.097,62.512 184.097,63.927 
		186.907,63.927 186.907,71.202 	"/>
	<rect x="195.301" y="62.512" fill="#16242F" width="1.555" height="8.691"/>
	<polygon fill="#16242F" points="203.06,67.502 207.505,67.502 207.505,66.137 203.06,66.137 203.06,63.877 208.074,63.877 
		208.074,62.512 201.503,62.512 201.503,71.202 208.137,71.202 208.137,69.836 203.06,69.836 	"/>
	<path fill="#16242F" d="M217.389,67.912c1.241-0.336,2.115-1.203,2.115-2.645c0-1.703-1.254-2.756-3.293-2.756h-3.948v8.689h1.558
		v-3.029h1.949l2.177,3.029h1.836L217.389,67.912z M213.82,66.82v-2.918h2.266c1.152,0,1.836,0.496,1.836,1.451
		c0,0.895-0.709,1.467-1.824,1.467H213.82z"/>
	<path fill="#16242F" d="M159.443,107.809c-0.009-0.001-0.022-0.001-0.025-0.001c-0.134,0-0.248,0.104-0.26,0.25l-0.009,0.088
		c0,0.016-0.015,0.207-0.019,0.487l0.004,0.51c-0.009,0.133-0.022,0.259-0.042,0.389c-0.009,0.093-0.017,0.163-0.026,0.233
		c-0.01,0.068-0.018,0.133-0.025,0.201c-0.02,0.15-0.033,0.29-0.057,0.417l-0.102,0.522c-0.064,0.34-0.098,0.453-0.118,0.513
		c0,0.01-0.005,0.019-0.005,0.025c-0.019,0.073,0.021,0.154,0.099,0.186c0.073,0.028,0.177-0.014,0.206-0.092
		c0.015-0.044,0.08-0.23,0.16-0.525l0.154-0.547c0.033-0.12,0.061-0.245,0.084-0.377l0.018-0.097
		c0.011-0.052,0.021-0.104,0.031-0.158c0.013-0.068,0.033-0.146,0.047-0.219c0.033-0.151,0.061-0.278,0.074-0.405l0.043-0.572
		c0.018-0.328,0.018-0.551,0.018-0.562C159.692,107.934,159.585,107.819,159.443,107.809z"/>
	<path fill="#16242F" d="M153.381,108.861c0.088,0.021,0.173-0.03,0.197-0.114c0.027-0.096,0.119-0.438,0.119-0.635
		c0-0.092-0.072-0.164-0.16-0.164s-0.156,0.072-0.156,0.164c0,0.145-0.08,0.445-0.109,0.549c-0.01,0.042-0.007,0.085,0.014,0.123
		C153.306,108.815,153.339,108.847,153.381,108.861z"/>
	<path fill="#16242F" d="M138.711,122.281c0.075,0.035,0.174-0.005,0.21-0.085c0.017-0.037,0.017-0.085,0.003-0.119
		c-0.018-0.04-0.045-0.07-0.084-0.089l-1.151-0.496c-0.021-0.008-0.043-0.014-0.064-0.014c-0.062,0-0.12,0.038-0.146,0.096
		c-0.016,0.041-0.017,0.083,0,0.12c0.015,0.039,0.042,0.074,0.084,0.089L138.711,122.281z"/>
	<path fill="#16242F" d="M136.441,121.113l0.14-0.285c-0.459-0.229-0.768-0.392-0.921-0.477c-0.025-0.014-0.051-0.023-0.079-0.023
		c-0.058,0-0.112,0.033-0.14,0.083c-0.044,0.075-0.016,0.171,0.06,0.217C135.698,120.738,136.15,120.966,136.441,121.113z"/>
	<path fill="#16242F" d="M138.794,112.037c-0.025-0.062-0.083-0.096-0.148-0.096c-0.021,0-0.041,0.002-0.062,0.01
		c-0.038,0.02-0.068,0.048-0.084,0.089c-0.016,0.039-0.016,0.081,0.001,0.122c0.023,0.048,0.523,1.215,0.835,1.577
		c0.052,0.058,0.164,0.066,0.222,0.012c0.033-0.028,0.054-0.068,0.057-0.109c0.002-0.047-0.011-0.084-0.039-0.115
		C139.345,113.263,138.931,112.359,138.794,112.037z"/>
	<path fill="#16242F" d="M138.252,115.053c-0.325-0.094-0.882-0.349-1.185-0.497c-0.033-0.014-0.058-0.018-0.081-0.018
		c-0.061,0-0.118,0.034-0.143,0.091c-0.02,0.038-0.024,0.079-0.009,0.121c0.014,0.039,0.044,0.072,0.083,0.091
		c0.164,0.078,0.861,0.406,1.244,0.516c0.075,0.018,0.173-0.024,0.198-0.101c0.01-0.047,0.008-0.089-0.014-0.124
		C138.326,115.093,138.294,115.066,138.252,115.053z"/>
	<path fill="#16242F" d="M145.191,116.872c0.519,0.054,1.021,0.095,1.527,0.113c0.039-0.106,0.076-0.207,0.112-0.311
		c-0.513-0.021-1.018-0.055-1.503-0.106C145.285,116.672,145.239,116.775,145.191,116.872z"/>
	<path fill="#16242F" d="M149.654,116.904c0.095-0.008,0.199-0.018,0.305-0.03c0.041-0.094,0.082-0.199,0.126-0.326
		c-0.099,0.012-0.191,0.023-0.282,0.03C149.76,116.687,149.709,116.796,149.654,116.904z"/>
	<path fill="#16242F" d="M157.333,114.468c-0.066,0.03-0.127,0.06-0.192,0.087l-0.072,0.033c-0.003,0.109-0.012,0.235-0.026,0.359
		c0.142-0.06,0.285-0.121,0.425-0.192c0.041-0.019,0.067-0.053,0.081-0.089c0.015-0.042,0.015-0.082-0.005-0.124
		C157.511,114.473,157.4,114.435,157.333,114.468z"/>
	<path fill="#16242F" d="M152.642,116.431c0.034-0.006,0.071-0.014,0.104-0.025l0.117-0.029c0.001-0.005,0.005-0.01,0.007-0.018
		c0.034-0.112,0.064-0.22,0.096-0.325c-0.084,0.024-0.173,0.042-0.267,0.062C152.686,116.213,152.666,116.326,152.642,116.431z"/>
	<path fill="#16242F" d="M147.836,116.968l-0.012,0.034c0.216-0.003,0.422-0.009,0.586-0.014c0.072-0.104,0.133-0.206,0.196-0.326
		c-0.235,0.013-0.455,0.021-0.663,0.021C147.903,116.787,147.871,116.872,147.836,116.968z"/>
	<path fill="#16242F" d="M151.131,116.724c0.093-0.015,0.193-0.034,0.285-0.049c0.016-0.036,0.031-0.074,0.059-0.106
		c0.044-0.06,0.085-0.144,0.113-0.239c-0.113,0.022-0.225,0.039-0.327,0.058C151.217,116.488,151.174,116.595,151.131,116.724z"/>
	<path fill="#16242F" d="M154.074,115.954c-0.012,0.039-0.021,0.071-0.033,0.108c0.078-0.022,0.159-0.046,0.249-0.074
		c0.034-0.113,0.056-0.229,0.071-0.353c-0.071,0.027-0.147,0.052-0.219,0.074C154.119,115.791,154.094,115.875,154.074,115.954z"/>
	<path fill="#16242F" d="M140.563,115.478c-0.062,0-0.121,0.034-0.146,0.092c-0.017,0.039-0.019,0.081-0.003,0.118
		c0.018,0.042,0.047,0.072,0.085,0.089c0.014,0.005,1.335,0.58,3.6,0.946c0.047-0.095,0.094-0.191,0.131-0.271l0.009-0.021
		c0.003,0,0.003,0,0.006-0.006c-2.247-0.35-3.607-0.934-3.622-0.937C140.608,115.48,140.586,115.478,140.563,115.478z"/>
	<path fill="#16242F" d="M155.426,115.608c0.151-0.052,0.314-0.117,0.477-0.181c0.023-0.123,0.045-0.244,0.061-0.367
		c-0.171,0.071-0.35,0.137-0.53,0.21C155.438,115.376,155.433,115.491,155.426,115.608z"/>
	<path fill="#16242F" d="M158.051,113.217c-0.018,0.041-0.023,0.085-0.007,0.124c0.013,0.036,0.042,0.073,0.079,0.094
		c0.023,0.01,0.047,0.015,0.068,0.015c0.062,0,0.117-0.035,0.147-0.089c0.08-0.164,0.204-0.466,0.281-0.651l-0.3-0.114
		C158.205,112.88,158.118,113.091,158.051,113.217z"/>
	<path fill="#16242F" d="M139.722,107.124c-0.065,0.005-0.102,0.024-0.13,0.062c-0.028,0.03-0.042,0.069-0.038,0.111
		c0.041,0.587,0,1.379,0,1.388c-0.001,0.041,0.01,0.085,0.038,0.115c0.029,0.026,0.068,0.048,0.111,0.048
		c0.004,0.006,0.005,0.006,0.005,0c0.087,0,0.159-0.063,0.165-0.147c0.006-0.141,0.038-0.86,0-1.424
		C139.864,107.192,139.8,107.124,139.722,107.124z"/>
	<path fill="#16242F" d="M146.857,93.886c-0.324,0.05-0.64,0.086-0.955,0.118c-0.052,0.12-0.1,0.228-0.148,0.331
		c0.337-0.032,0.646-0.064,0.942-0.104C146.751,94.126,146.808,94.011,146.857,93.886z"/>
	<path fill="#16242F" d="M149.186,93.337c-0.359,0.119-0.739,0.226-1.133,0.319c-0.037,0.121-0.082,0.243-0.12,0.354
		c0.405-0.088,0.802-0.197,1.185-0.318C149.145,93.565,149.167,93.449,149.186,93.337z"/>
	<path fill="#16242F" d="M139.411,93.913l0.026,0.005c0.106,0.01,0.203,0.02,0.286,0.033c0.381,0.07,0.758,0.13,1.283,0.209
		c0.229,0.029,0.468,0.063,0.714,0.096c0.088-0.084,0.173-0.178,0.264-0.286c-0.293-0.036-0.597-0.075-0.929-0.126
		c-0.376-0.058-0.834-0.128-1.276-0.203c-0.098-0.021-0.216-0.034-0.328-0.044c-0.326-0.037-0.688-0.073-0.872-0.229
		c-0.029-0.021-0.066-0.039-0.102-0.039c-0.048,0-0.092,0.02-0.122,0.057c-0.058,0.069-0.047,0.168,0.018,0.225
		C138.634,93.828,139.064,93.876,139.411,93.913z"/>
	<path fill="#16242F" d="M142.99,94.379c0.339,0.022,0.627,0.035,0.902,0.035h0.018c0.169,0,0.334-0.008,0.5-0.01l0.13-0.003
		c0.06-0.107,0.116-0.215,0.17-0.318c-0.508,0.015-1,0.022-1.494-0.005C143.144,94.177,143.068,94.277,142.99,94.379z"/>
	<path fill="#16242F" d="M150.25,93.275c0.254-0.111,0.481-0.217,0.693-0.325l0.178-0.096c0.013-0.134,0.02-0.255,0.02-0.364
		l-0.348,0.174c-0.18,0.095-0.363,0.182-0.508,0.244C150.279,93.02,150.264,93.143,150.25,93.275z"/>
	<path fill="#16242F" d="M145.437,92.173c0.028-0.118,0.046-0.227,0.058-0.324c-0.324,0.033-0.631,0.061-0.936,0.076h-0.005
		c-0.033,0.103-0.076,0.216-0.126,0.327l0.146-0.011C144.843,92.228,145.127,92.205,145.437,92.173z"/>
	<path fill="#16242F" d="M149.193,91.006c-0.176,0.069-0.35,0.128-0.512,0.185c-0.008,0.111-0.021,0.228-0.041,0.35
		c0.213-0.062,0.412-0.13,0.602-0.201C149.23,91.219,149.213,91.104,149.193,91.006z"/>
	<path fill="#16242F" d="M147.5,91.848c0.033-0.128,0.062-0.242,0.084-0.347c-0.388,0.092-0.689,0.147-0.883,0.181
		c-0.043,0.008-0.09,0.013-0.135,0.023h-0.017c-0.003,0.105-0.011,0.215-0.021,0.323c0.072-0.012,0.15-0.023,0.227-0.033
		C146.982,91.956,147.23,91.906,147.5,91.848z"/>
	<path fill="#16242F" d="M143.206,92.307c0.074-0.114,0.135-0.223,0.187-0.316c-0.556,0.005-0.976-0.049-1.278-0.182
		c-0.022-0.011-0.041-0.013-0.063-0.013c-0.064,0-0.12,0.036-0.144,0.096c-0.018,0.042-0.018,0.084-0.003,0.12
		c0.015,0.043,0.045,0.072,0.086,0.087C142.304,92.233,142.693,92.302,143.206,92.307z"/>
	<path fill="#16242F" d="M150.658,90.658c-0.029-0.072-0.058-0.143-0.088-0.217c-0.014-0.025-0.025-0.058-0.036-0.086
		c-0.118,0.07-0.235,0.137-0.355,0.203c0.023,0.112,0.046,0.225,0.066,0.336C150.383,90.824,150.524,90.747,150.658,90.658z"/>
	<path fill="#16242F" d="M139.177,95.492c0.021-0.024,0.038-0.039,0.054-0.059c0.062-0.064,0.124-0.138,0.185-0.208
		c-0.364-0.068-0.787-0.189-1.141-0.459c-0.027-0.02-0.062-0.032-0.097-0.032c-0.05,0-0.095,0.022-0.126,0.064
		c-0.025,0.029-0.036,0.073-0.029,0.116c0.004,0.042,0.026,0.08,0.061,0.106C138.369,95.24,138.709,95.389,139.177,95.492z"/>
	<path fill="#16242F" d="M141.513,95.598c-0.298-0.109-0.628-0.167-0.946-0.205c-0.046,0.094-0.106,0.188-0.18,0.29
		c0.34,0.041,0.704,0.099,1.016,0.215c0.07,0.021,0.178-0.023,0.204-0.099c0.014-0.037,0.014-0.084-0.005-0.116
		C141.583,95.638,141.55,95.611,141.513,95.598z"/>
	<path fill="#16242F" d="M130.767,105.596c-0.028,0-0.058,0.009-0.082,0.022c-0.101,0.069-0.457,0.308-0.79,0.614
		c-0.032,0.027-0.049,0.07-0.052,0.111c-0.002,0.042,0.012,0.081,0.04,0.112c0.029,0.028,0.072,0.05,0.12,0.05
		c0.041,0,0.081-0.017,0.106-0.041c0.335-0.306,0.738-0.577,0.775-0.589c0.047-0.038,0.064-0.137,0.016-0.207
		C130.87,105.619,130.823,105.596,130.767,105.596z"/>
	<path fill="#16242F" d="M132.301,104.063c-0.046,0-0.09,0.015-0.119,0.052c-0.133,0.153-0.427,0.464-0.602,0.561
		c-0.034,0.024-0.062,0.059-0.072,0.103c-0.01,0.039-0.006,0.085,0.017,0.119c0.04,0.066,0.151,0.099,0.217,0.055
		c0.158-0.089,0.412-0.325,0.68-0.625c0.026-0.034,0.039-0.077,0.036-0.118c-0.002-0.042-0.021-0.079-0.052-0.107
		C132.377,104.073,132.339,104.063,132.301,104.063z"/>
	<path fill="#16242F" d="M134.247,102.351c-0.205,0.168-0.831,0.707-1.174,1.002l0.208,0.242c0.628-0.541,1.021-0.879,1.168-0.997
		c0.033-0.027,0.053-0.065,0.056-0.107c0.005-0.043-0.008-0.085-0.036-0.115C134.42,102.317,134.299,102.304,134.247,102.351z"/>
	<path fill="#16242F" d="M136.504,100.624c-0.026,0-0.052,0.008-0.073,0.019c-0.532,0.281-1.521,1.09-1.531,1.099
		c-0.036,0.027-0.053,0.066-0.06,0.106c-0.002,0.044,0.009,0.085,0.035,0.12c0.047,0.05,0.169,0.064,0.225,0.021
		c0.311-0.253,1.06-0.839,1.479-1.065c0.076-0.042,0.106-0.138,0.064-0.214C136.616,100.658,136.562,100.624,136.504,100.624z"/>
	<path fill="#16242F" d="M137.463,100.398c0.025-0.014,0.562-0.353,0.764-0.414c0.028-0.013,0.049-0.03,0.062-0.052
		c0.017-0.027,0.019-0.058,0.01-0.083c-0.014-0.045-0.053-0.075-0.1-0.075c-0.01,0-0.021,0-0.034,0.005
		c-0.217,0.064-0.699,0.362-0.815,0.441c-0.025,0.015-0.044,0.041-0.051,0.066c-0.005,0.025,0,0.055,0.018,0.082
		C137.347,100.415,137.414,100.432,137.463,100.398z"/>
	<path fill="#16242F" d="M136.27,102.55l-0.043,0.023c-0.789,0.445-1.357,0.76-1.628,0.909l0.153,0.277
		c0.312-0.177,1.156-0.643,1.673-0.936c0.039-0.02,0.064-0.056,0.077-0.096c0.009-0.038,0.005-0.084-0.016-0.118
		C136.446,102.537,136.342,102.509,136.27,102.55z"/>
	<path fill="#16242F" d="M138.229,101.618c-0.015,0-0.029,0.005-0.042,0.007c-0.4,0.192-0.714,0.387-0.803,0.437
		c-0.021,0.016-0.036,0.037-0.042,0.064c-0.006,0.029-0.001,0.055,0.011,0.074c0.026,0.044,0.096,0.06,0.141,0.033
		c0.087-0.053,0.403-0.24,0.779-0.422c0.024-0.014,0.042-0.031,0.052-0.058c0.009-0.025,0.009-0.052-0.002-0.079
		C138.306,101.64,138.271,101.618,138.229,101.618z"/>
	<path fill="#16242F" d="M139.578,96.629c-0.039,0.014-0.072,0.042-0.094,0.083c-0.019,0.037-0.021,0.078-0.01,0.119
		c0.025,0.078,0.111,0.135,0.201,0.102l0.159-0.047c0.152-0.05,0.392-0.12,0.558-0.169l-0.089-0.308
		C140.072,96.479,139.709,96.584,139.578,96.629z"/>
	<path fill="#16242F" d="M136.326,97.945c-0.016,0.041-0.013,0.084,0.004,0.126c0.034,0.069,0.136,0.111,0.211,0.074
		c0.373-0.168,1.209-0.46,1.241-0.467c0.021-0.01,0.053-0.037,0.071-0.074c0.021-0.039,0.023-0.08,0.007-0.122
		c-0.021-0.062-0.083-0.105-0.15-0.105c-0.018,0-0.037,0.002-0.052,0.009c-0.276,0.092-0.911,0.318-1.248,0.474
		C136.37,97.874,136.342,97.906,136.326,97.945z"/>
	<path fill="#16242F" d="M134.643,98.807c-0.037,0.021-0.06,0.052-0.068,0.099c-0.012,0.041-0.002,0.082,0.021,0.116
		c0.039,0.066,0.154,0.097,0.219,0.052c0.162-0.1,0.362-0.237,0.495-0.325l-0.182-0.262
		C134.984,98.582,134.797,98.708,134.643,98.807z"/>
	<path fill="#16242F" d="M136.331,94.826l0.085,0.037c0.204,0.089,0.423,0.173,0.667,0.147c0.048-0.005,0.083-0.026,0.112-0.059
		c0.025-0.033,0.038-0.074,0.033-0.119c-0.008-0.077-0.072-0.141-0.157-0.141c-0.038,0.003-0.058,0.003-0.079,0.003
		c-0.148,0-0.28-0.055-0.434-0.116l-0.11-0.044c-0.02-0.008-0.039-0.01-0.061-0.01c-0.065,0-0.121,0.035-0.146,0.096
		c-0.015,0.04-0.015,0.082,0.002,0.123C136.262,94.781,136.292,94.812,136.331,94.826z"/>
	<path fill="#16242F" d="M161.857,110.212c0.084,0,0.16-0.07,0.16-0.157v-0.599c0-0.084-0.076-0.158-0.16-0.158
		c-0.09,0-0.161,0.074-0.161,0.158v0.599C161.696,110.142,161.768,110.212,161.857,110.212z"/>
	<path fill="#16242F" d="M161.834,110.974c-0.021-0.008-0.041-0.011-0.061-0.011c-0.062,0-0.119,0.03-0.152,0.094
		c-0.021,0.062-0.009,0.137,0.043,0.178l0.022,0.023c0.04,0.031,0.054,0.089,0.04,0.138l-0.007,0.022
		c-0.023,0.075-0.062,0.171-0.087,0.227c-0.021,0.06-0.039,0.104-0.054,0.149c-0.032,0.08,0.015,0.173,0.101,0.204
		c0.068,0.017,0.171-0.026,0.199-0.104c0.012-0.031,0.025-0.064,0.039-0.099C162.119,111.315,162.092,111.087,161.834,110.974z"/>
	<path fill="#16242F" d="M151.683,83.497c-1.093-0.167-2.215-0.266-3.357-0.285c-12.699-0.225-23.359,9.025-25.227,21.249
		c-0.165,1.096-0.265,2.217-0.281,3.362c-0.076,4.244,0.927,8.248,2.725,11.784c-0.011,0.546-0.087,1.154-0.323,1.714
		c-0.089,0.208-0.192,0.402-0.323,0.592c-1.109,1.548-2.978,1.286-4.471,1.621c-2.117,0.463-2.935,1.909-3.072,3.22
		c-0.128,1.2,0.494,1.941,0.494,1.941s-0.686,1.192,0.183,2.374c0.871,1.178,2.262,0.947,2.262,0.947s0.519,0.817,1.708,1.055
		c1.29,0.259,2.909-0.091,3.985-1.975c0.761-1.327,1.071-3.188,2.884-3.78c0.219-0.069,0.446-0.116,0.673-0.139
		c0.877-0.079,1.762,0.184,2.385,0.431c3.403,2.812,7.564,4.745,12.142,5.444c1.099,0.172,2.218,0.263,3.355,0.285
		c12.705,0.222,23.368-9.034,25.234-21.256c0.168-1.101,0.262-2.219,0.287-3.355C173.171,96.016,163.912,85.36,151.683,83.497z
		 M123.847,130.969c-0.866,0.633-2.08,0.449-2.714-0.412c-0.054-0.082-0.101-0.167-0.146-0.252c-0.538,0.303-1.2,0.104-1.467-0.267
		c-0.005-0.002-0.003-0.009-0.005-0.009c-0.006-0.003-0.01-0.003-0.013-0.011c-0.269-0.366-0.264-1.055,0.185-1.475
		c-0.062-0.068-0.131-0.137-0.192-0.219c-0.632-0.861-0.448-2.075,0.414-2.712c0.868-0.634,2.076-0.451,2.715,0.417
		c0.32,0.437,0.43,0.958,0.352,1.455c0.498,0.069,0.966,0.333,1.286,0.769C124.897,129.12,124.711,130.334,123.847,130.969z
		 M147.567,130.514c-1.002-0.013-2.013-0.101-3.001-0.251c-11.043-1.685-19.219-11.393-19.022-22.576
		c0.11-5.986,2.544-11.577,6.854-15.735c4.312-4.164,9.986-6.395,15.974-6.285c1.006,0.017,2.017,0.103,3.01,0.252
		c11.038,1.685,19.218,11.394,19.017,22.574C170.172,120.857,159.934,130.739,147.567,130.514z M148.306,84.415L148.306,84.415
		L148.306,84.415L148.306,84.415z"/>
	<path fill="#16242F" d="M151.119,87.642c-0.916-0.139-1.852-0.217-2.78-0.235c-5.524-0.099-10.753,1.956-14.73,5.8
		c-3.978,3.831-6.221,8.989-6.321,14.513c-0.184,10.318,7.353,19.274,17.541,20.824c0.912,0.141,1.843,0.22,2.773,0.235
		c5.522,0.09,10.752-1.961,14.734-5.798c3.972-3.843,6.223-8.993,6.316-14.521C168.841,98.15,161.305,89.195,151.119,87.642z
		 M129.277,107.934c0.005-0.309,0.026-0.615,0.047-0.921c0.007-0.015,0.023-0.023,0.027-0.041c0.004-0.029-0.01-0.056-0.021-0.082
		c0.035-0.475,0.083-0.944,0.153-1.404c0.046-0.299,0.117-0.589,0.177-0.883c0.024,0.001,0.052,0.009,0.076,0.009
		c0.243,0,0.433-0.058,0.578-0.183c0.036-0.027,0.054-0.066,0.058-0.108c0.007-0.042-0.007-0.084-0.035-0.113
		c-0.047-0.058-0.168-0.067-0.225-0.022c-0.09,0.074-0.211,0.107-0.375,0.107c-0.003,0-0.009-0.002-0.013-0.002
		c0.083-0.372,0.179-0.738,0.284-1.103c0.461,0.086,0.929,0.124,1.32,0.037c0.027-0.005,0.037-0.007,0.047-0.007
		c0.018,0,0.056,0.008,0.073,0.021c0.041,0.025,0.066,0.033,0.088,0.033c0.038,0,0.078-0.016,0.106-0.044
		c0.179-0.168,0.44-0.382,0.718-0.611l0.104-0.081c0.412-0.339,0.822-0.678,1.021-0.892c0.029-0.031,0.042-0.068,0.039-0.112
		c-0.001-0.044-0.018-0.082-0.052-0.114c-0.048-0.047-0.176-0.04-0.222,0.013l-0.028,0.029c-0.014,0.012-0.049,0.029-0.066,0.037
		l-0.025,0.007c-0.032,0.008-0.072,0.008-0.103,0.018c-0.098,0.045-0.226,0.068-0.377,0.068c-0.457,0-1.175-0.22-1.896-0.509
		c0.227-0.528,0.475-1.045,0.748-1.546c0.309,0.096,0.645,0.196,0.99,0.285l0.096,0.026c0.051,0.012,0.092,0.054,0.104,0.107
		c0.007,0.061-0.016,0.112-0.061,0.144l-0.271,0.163c-0.09,0.054-0.182,0.11-0.265,0.157c-0.036,0.021-0.061,0.06-0.073,0.097
		c-0.009,0.042-0.004,0.086,0.015,0.125c0.039,0.065,0.149,0.095,0.216,0.059c0.08-0.046,0.16-0.098,0.242-0.149l0.061-0.037
		c0.172-0.104,0.347-0.212,0.493-0.276c0.049-0.021,0.073-0.067,0.083-0.101l0.012-0.037c0.016-0.06,0.072-0.099,0.134-0.099
		c0.01,0,0.029,0,0.038,0.005l0.027,0.004c0.411,0.075,0.792,0.122,1.14,0.134h0.126c0.059,0.005,0.112,0.044,0.13,0.102
		c0.018,0.06-0.003,0.121-0.057,0.155l-0.1,0.069c-0.021,0.018-0.045,0.032-0.068,0.047l-0.043,0.033
		c-0.052,0.036-0.095,0.065-0.139,0.1c-0.035,0.027-0.055,0.062-0.062,0.106c-0.006,0.042,0.007,0.081,0.032,0.117
		c0.045,0.059,0.164,0.073,0.222,0.028c0.336-0.258,0.726-0.501,1.069-0.717c0.208-0.13,0.377-0.233,0.544-0.342
		c0.037-0.025,0.059-0.062,0.067-0.104c0.009-0.04,0.002-0.087-0.024-0.116c-0.041-0.071-0.147-0.094-0.22-0.049l-0.07,0.049
		c-0.03,0.019-0.055,0.019-0.072,0.019c-0.002,0.003-0.025,0-0.03,0c-0.056-0.009-0.063-0.005-0.087,0.005
		c-0.273,0.127-0.627,0.191-1.048,0.191c-0.93,0-2.077-0.301-3.001-0.589c0.117-0.206,0.251-0.399,0.376-0.601
		c0.001,0.022-0.006,0.046,0.005,0.066c0.034,0.073,0.134,0.108,0.212,0.07c0.137-0.065,0.281-0.151,0.415-0.235l0.053-0.032
		c0.119-0.073,0.235-0.144,0.349-0.204c0.035-0.016,0.062-0.052,0.072-0.095c0.014-0.039,0.011-0.084-0.01-0.121
		c-0.028-0.049-0.083-0.08-0.141-0.08c-0.025,0-0.054,0.009-0.079,0.019c-0.102,0.057-0.207,0.12-0.307,0.182l-0.08,0.047
		c-0.137,0.08-0.263,0.155-0.39,0.222c0.22-0.347,0.45-0.685,0.691-1.016c0.249,0.073,0.46,0.131,0.668,0.171
		c0.162,0.028,0.328,0.056,0.491,0.082l0.071,0.012c0.242,0.038,0.466,0.076,0.693,0.127c0.072,0.018,0.147,0.038,0.223,0.061
		c0.221,0.069,0.466,0.138,0.673,0.113c0.045-0.005,0.081-0.029,0.108-0.061c0.025-0.033,0.04-0.075,0.033-0.116
		c-0.01-0.08-0.078-0.143-0.162-0.143c-0.033,0.002-0.058,0.007-0.083,0.007c-0.133,0-0.289-0.045-0.451-0.097l-0.037-0.012
		c-0.089-0.021-0.16-0.043-0.23-0.062c-0.044-0.014-0.089-0.021-0.135-0.025l-0.288-0.055c-0.061-0.013-0.106-0.057-0.111-0.118
		c-0.009-0.059,0.021-0.119,0.077-0.141l0.118-0.058c0.03-0.013,0.058-0.028,0.087-0.047c0.067-0.033,0.122-0.062,0.182-0.087
		c0.219-0.094,0.446-0.197,0.661-0.335c0.038-0.023,0.063-0.057,0.071-0.099c0.01-0.039,0.002-0.081-0.021-0.118
		c-0.046-0.073-0.145-0.099-0.22-0.052c-0.185,0.122-0.384,0.21-0.599,0.306l-0.026,0.01c-0.205,0.088-0.436,0.191-0.65,0.326
		c-0.041,0.024-0.065,0.069-0.069,0.123l-0.003,0.046c-0.002,0.041-0.021,0.078-0.049,0.1c-0.035,0.025-0.084,0.035-0.121,0.025
		l-0.08-0.012c-0.035-0.006-0.065-0.011-0.093-0.016c-0.171-0.033-0.346-0.084-0.52-0.134c0.466-0.61,0.958-1.203,1.497-1.749
		c0.135,0.021,0.273,0.037,0.417,0.037l0.092-0.003c0.086,0,0.157-0.076,0.151-0.164c-0.001-0.088-0.068-0.153-0.156-0.153
		c-0.041,0.003-0.081,0.004-0.118,0.004c-0.026,0-0.05-0.011-0.075-0.013c3.354-3.254,7.938-5.234,12.973-5.16
		c-0.001,0.008-0.001,0.017-0.004,0.023c0.019-0.009,0.037-0.017,0.054-0.024c0.01,0,0.017-0.001,0.025-0.001
		c0.834,0.017,1.652,0.086,2.449,0.206c1.029,0.156,2.023,0.407,2.988,0.727c-0.25,0.342-0.637,0.678-1.188,1.017
		c0.018,0.121,0.029,0.234,0.035,0.354c0.494-0.293,1.088-0.72,1.457-1.272c0.668,0.234,1.312,0.52,1.943,0.828
		c-0.275,0.278-0.562,0.608-0.851,1.008c-0.026,0.043-0.077,0.055-0.099,0.061c-0.047,0.01-0.062,0.025-0.074,0.034L154.498,93
		c-0.016,0.011-0.021,0.017-0.036,0.029c-0.058,0.055-0.099,0.064-0.158,0.047c-0.919-0.119-1.512-0.131-1.515-0.131
		c-0.091,0-0.16,0.071-0.162,0.16c0,0.087,0.07,0.159,0.158,0.159c0.004,0,0.324,0.006,0.861,0.056l0.107,0.01
		c0.061,0.008,0.107,0.049,0.121,0.105c0.016,0.052-0.004,0.109-0.05,0.147l-0.091,0.065c-0.415,0.304-0.893,0.58-1.418,0.822
		c-0.013,0.008-0.041,0.011-0.055,0.011c-0.02,0-0.039-0.003-0.062-0.008c-0.898-0.297-1.443-0.439-1.504-0.458
		c-0.104-0.028-0.171,0.03-0.193,0.117c-0.01,0.039-0.005,0.08,0.019,0.121c0.021,0.034,0.057,0.06,0.099,0.071
		c0.253,0.069,0.518,0.146,0.693,0.2l0.129,0.036c0.055,0.019,0.098,0.068,0.098,0.134c0.002,0.057-0.036,0.109-0.094,0.128
		l-0.127,0.047c-0.605,0.205-1.266,0.378-1.958,0.514l-0.155,0.027c-0.055,0.012-0.125-0.02-0.15-0.071
		c-0.025-0.062-0.014-0.128,0.033-0.171l0.115-0.104c0.104-0.089,0.18-0.177,0.23-0.263c0.01-0.018,0.018-0.043,0.01-0.1
		c-0.004-0.053-0.031-0.095-0.072-0.115c-0.037-0.026-0.086-0.026-0.135-0.005c-0.039,0.011-0.064,0.033-0.082,0.062
		c-0.219,0.392-1.043,0.646-1.587,0.815l-0.053,0.018c-0.175,0.055-0.343,0.106-0.473,0.157c-0.003,0-0.134,0.049-0.149,0.054
		c-0.559,0.036-1.125,0.055-1.691,0.055c-1.673,0-2.869-0.155-2.876-0.158h-0.015c-0.077,0-0.149,0.062-0.158,0.14
		c-0.005,0.042,0.005,0.082,0.031,0.119c0.027,0.033,0.063,0.056,0.105,0.06c0.253,0.031,0.953,0.108,1.938,0.15l0.402,0.015
		c0.072,0.003,0.129,0.056,0.136,0.125c0.002,0.075-0.048,0.141-0.115,0.148l-0.645,0.11c-0.233,0.064-0.478,0.126-0.714,0.183
		l-0.098,0.025c-0.559,0.136-1.083,0.266-1.572,0.432c-0.68,0.218-1.378,0.437-1.976,0.689c-0.589,0.219-1.083,0.436-1.48,0.616
		c-0.288,0.12-0.513,0.231-0.714,0.328l-0.055,0.027c-0.071,0.035-0.137,0.068-0.197,0.094l-0.321,0.161
		c-0.076,0.041-0.106,0.137-0.072,0.211c0.036,0.074,0.141,0.112,0.213,0.077l0.335-0.161c0.08-0.032,0.158-0.072,0.262-0.119
		c0.169-0.075,0.4-0.185,0.677-0.293c0.724-0.309,1.91-0.769,3.441-1.23c0.475-0.16,0.991-0.278,1.538-0.408
		c0.245-0.062,0.535-0.128,0.821-0.202l1.317-0.215c0.082-0.012,0.162-0.024,0.242-0.038l0.026-0.004
		c0.127-0.022,0.271-0.044,0.413-0.064l0.701-0.036c0.163-0.008,0.328-0.018,0.495-0.027c0.265-0.02,0.597-0.042,0.914-0.042
		c0.177,0.016,0.342,0.022,0.521,0.025c0.302,0.014,0.66,0.026,0.98,0.086l0.219,0.026c0.357,0.052,0.799,0.114,1.224,0.229
		c0.08,0.018,0.165,0.037,0.253,0.055c0.142,0.036,0.311,0.071,0.469,0.113l0.713,0.228c0.518,0.159,1.051,0.371,1.685,0.656
		l0.044,0.02c0.035,0.013,0.064,0.048,0.08,0.084c0.008,0.047,0,0.085-0.02,0.12l-0.432,0.642c-0.047,0.09-0.128,0.173-0.201,0.25
		c-0.039,0.04-0.076,0.073-0.105,0.115l-0.313,0.334l-0.303,0.27c-0.104,0.097-0.206,0.172-0.274,0.227l-0.025,0.02
		c-0.031,0.025-0.075,0.035-0.115,0.027l-0.138-0.032c-0.065-0.015-0.127-0.027-0.188-0.035l-0.073-0.017
		c-0.051-0.011-0.091-0.044-0.107-0.093c-0.017-0.045-0.006-0.101,0.029-0.139l0.15-0.163c0.139-0.16,0.281-0.363,0.393-0.551
		l0.139-0.299c0.036-0.075,0.01-0.165-0.062-0.204c-0.069-0.042-0.174-0.012-0.217,0.057l-0.149,0.262
		c-0.088,0.122-0.22,0.292-0.398,0.471c-0.174,0.166-0.34,0.307-0.469,0.402c-0.035,0.027-0.049,0.039-0.063,0.051l-0.05,0.033
		c-0.023,0.019-0.05,0.027-0.081,0.027c-0.007,0-0.038-0.005-0.048-0.005c-0.064-0.009-0.143-0.014-0.217-0.022l-0.039-0.005
		c-0.024-0.002-0.055-0.005-0.084-0.01l-0.119-0.011c-0.053-0.007-0.094-0.038-0.115-0.078c-0.018-0.041-0.014-0.094,0.012-0.135
		l0.057-0.09c0.021-0.035,0.045-0.062,0.062-0.096c0.13-0.204,0.254-0.435,0.341-0.637c0.028-0.064,0.047-0.128,0.065-0.193
		l0.049-0.147c0.021-0.071-0.012-0.148-0.076-0.183c-0.071-0.036-0.174-0.01-0.209,0.067l-0.07,0.135
		c-0.01,0.015-0.016,0.027-0.021,0.041c-0.017,0.035-0.036,0.077-0.067,0.132c-0.103,0.167-0.243,0.36-0.383,0.521
		c-0.139,0.167-0.303,0.349-0.504,0.549c-0.043,0.036-0.081,0.044-0.113,0.044c-0.236-0.013-0.416-0.013-0.595-0.013h-0.081
		c-0.05,0-0.098-0.031-0.121-0.076c-0.023-0.042-0.022-0.102,0.006-0.144l0.068-0.101c0.039-0.06,0.078-0.121,0.118-0.18
		c0.124-0.204,0.245-0.439,0.331-0.655c0.061-0.185,0.094-0.323,0.096-0.34c0.02-0.069-0.018-0.146-0.088-0.178
		c-0.077-0.037-0.174,0.011-0.205,0.081l-0.129,0.287c-0.062,0.116-0.188,0.329-0.37,0.557c-0.154,0.191-0.313,0.375-0.44,0.503
		c-0.002,0-0.213,0.209-0.24,0.24c-0.033,0.039-0.078,0.05-0.111,0.055c-0.233,0.019-0.463,0.044-0.684,0.072l-0.092,0.014
		c-0.068,0.013-0.109-0.019-0.139-0.062c-0.031-0.051-0.025-0.109,0.002-0.153l0.053-0.078c0.06-0.087,0.113-0.176,0.174-0.264
		l0.033-0.069c0.094-0.161,0.181-0.32,0.26-0.481l0.059-0.152c0.054-0.126,0.101-0.247,0.141-0.36l0.121-0.533
		c0.018-0.076-0.023-0.155-0.098-0.179c-0.077-0.035-0.174,0.015-0.2,0.09l-0.175,0.488c-0.041,0.084-0.082,0.162-0.133,0.255
		c-0.033,0.06-0.068,0.118-0.103,0.181c-0.075,0.125-0.155,0.241-0.235,0.351l-0.088,0.124c-0.262,0.318-0.518,0.601-0.732,0.801
		c-0.125,0.118-0.232,0.217-0.334,0.296c-0.014,0.004-0.024,0.011-0.039,0.014c-0.309,0.075-0.582,0.146-0.835,0.218l-0.09,0.026
		c-0.053,0.016-0.115-0.009-0.146-0.045c-0.036-0.045-0.04-0.105-0.017-0.156l0.044-0.081c0.119-0.241,0.209-0.441,0.271-0.595
		l0.136-0.439c0.022-0.074-0.012-0.157-0.082-0.188c-0.075-0.04-0.176,0.005-0.211,0.071l-0.188,0.39
		c-0.144,0.26-0.328,0.528-0.503,0.761c-0.2,0.249-0.405,0.483-0.574,0.66c-0.013,0.008-0.044,0.028-0.057,0.039
		c-0.391,0.128-0.752,0.262-1.119,0.396l-0.072,0.026c-0.011,0.005-0.038,0.009-0.049,0.009c-0.036,0-0.07-0.014-0.094-0.038
		c-0.034-0.027-0.052-0.079-0.043-0.128l0.018-0.079c0.038-0.171,0.061-0.341,0.069-0.41c0.005-0.047,0.012-0.074,0.018-0.095
		c0.011-0.073-0.049-0.155-0.132-0.172c-0.013-0.002-0.024-0.005-0.034-0.005c-0.076,0-0.138,0.064-0.157,0.152
		c-0.001,0.028-0.014,0.049-0.03,0.067l-0.005,0.013c-0.043,0.096-0.123,0.281-0.248,0.474c-0.05,0.099-0.121,0.205-0.179,0.286
		c0,0-0.143,0.218-0.163,0.249c-0.011,0.025-0.024,0.04-0.072,0.092c-0.011,0.009-0.021,0.016-0.034,0.02
		c-0.513,0.201-1.067,0.42-1.86,0.733l-0.456,0.185c-4.56,1.819-8.097,4.434-9.687,5.724
		C129.285,108.096,129.276,108.016,129.277,107.934z M130.098,102.885c0.159-0.513,0.338-1.017,0.54-1.51
		c0.558,0.226,1.147,0.421,1.661,0.491l0.093,0.013c0.053,0.008,0.1,0.047,0.118,0.097c0.015,0.057-0.004,0.111-0.045,0.146
		l-0.438,0.36c-0.088,0.071-0.173,0.144-0.252,0.209c-0.005,0.006-0.022,0.017-0.028,0.02c-0.008,0.006-0.032,0.016-0.039,0.016
		c-0.027,0.008-0.047,0.018-0.065,0.031c-0.186,0.136-0.46,0.205-0.81,0.205C130.604,102.962,130.354,102.932,130.098,102.885z
		 M161.615,119.939c-0.016-0.029-0.042-0.054-0.029-0.089l0.026-0.112c0.064-0.23,0.138-0.567,0.131-0.879v-0.033
		c0-0.07,0.05-0.133,0.118-0.142l0.037-0.006c0.16-0.025,0.307-0.038,0.441-0.038h0.033c0.077,0.001,0.146,0.008,0.219,0.013
		C162.285,119.097,161.959,119.525,161.615,119.939z M139.764,119.686c-0.15-0.253-0.274-0.575-0.353-0.937l-0.019-0.078
		c-0.011-0.052,0.006-0.104,0.043-0.132c0.022-0.026,0.055-0.041,0.09-0.041c0.014,0,0.038,0.003,0.047,0.01l0.072,0.026
		c0.038,0.007,0.079,0.023,0.115,0.038c0.051,0.022,0.095,0.039,0.14,0.052l0.792,0.262l0.832,0.239
		c0.547,0.144,1.117,0.274,1.702,0.39c0.789,0.158,1.669,0.265,2.691,0.341l0.047,0.001c0.04,0.005,0.08,0.023,0.104,0.056
		c0.025,0.03,0.033,0.074,0.025,0.114l-0.01,0.041c-0.057,0.297-0.221,0.616-0.376,0.896l-0.013,0.023
		c-0.022,0.04-0.069,0.068-0.119,0.068h-0.232c-0.395,0-0.716-0.012-1.011-0.04c-0.664-0.016-1.31-0.102-1.935-0.187l-0.042-0.003
		c-0.18-0.024-0.362-0.044-0.542-0.065l-0.452-0.095c-0.585-0.111-1.188-0.23-1.735-0.397l-0.26-0.079
		c-0.546-0.15-1.057-0.333-1.467-0.479l-0.205-0.069l-0.038-0.016l-0.034-0.016c-0.057-0.023-0.084-0.052-0.099-0.091
		c-0.019-0.057-0.039-0.085-0.066-0.099c-0.527-0.326-0.728-1.047-0.866-1.778l-0.015-0.083c-0.009-0.049,0.008-0.101,0.049-0.131
		c0.031-0.021,0.061-0.029,0.088-0.029c0.014,0,0.043,0.005,0.053,0.008l0.138,0.063c0.598,0.262,1.273,0.528,2.003,0.798
		l0.022,0.01c0.05,0.017,0.091,0.062,0.093,0.118l0.002,0.02c0.065,0.511,0.238,1.049,0.465,1.435l0.092,0.071l0.08-0.008
		c0.014-0.003,0.043-0.007,0.052-0.012c0.033-0.022,0.059-0.052,0.07-0.099C139.79,119.758,139.784,119.72,139.764,119.686z
		 M141.854,118.489c-0.017-0.045-0.011-0.095,0.021-0.132l0.038-0.052c0.089-0.118,0.15-0.217,0.19-0.313l0.014-0.033
		c0.025-0.061,0.1-0.091,0.157-0.08l0.042,0.007c0.44,0.111,0.915,0.213,1.416,0.294l0.074,0.01
		c0.048,0.008,0.087,0.045,0.106,0.088c0.018,0.051,0.006,0.104-0.023,0.137l-0.045,0.06c-0.087,0.107-0.167,0.173-0.245,0.211
		c-0.032,0.015-0.058,0.052-0.073,0.09l-0.014,0.031c-0.019,0.054-0.072,0.093-0.128,0.093c-0.007,0-0.021-0.003-0.026-0.003
		l-0.037-0.007c-0.424-0.083-0.827-0.182-1.306-0.294l-0.062-0.014C141.906,118.567,141.869,118.534,141.854,118.489z
		 M145.838,119.071l-0.039,0.057c-0.027,0.035-0.067,0.063-0.114,0.063l-0.035-0.005c-0.487-0.039-0.988-0.099-1.487-0.174
		l-0.079-0.009c-0.05-0.012-0.094-0.043-0.111-0.095c-0.015-0.05-0.006-0.099,0.026-0.135l0.053-0.065
		c0.09-0.092,0.16-0.208,0.218-0.323l0.012-0.023c0.031-0.059,0.094-0.091,0.15-0.081l0.024,0.001
		c0.464,0.06,0.969,0.104,1.492,0.127h0.068c0.053,0.005,0.094,0.032,0.116,0.077c0.023,0.038,0.023,0.092,0.003,0.133l-0.037,0.063
		C146.02,118.819,145.922,118.959,145.838,119.071z M146.162,120.778c0.129-0.262,0.209-0.494,0.24-0.716l0.007-0.042
		c0.011-0.068,0.069-0.115,0.137-0.115l0.047,0.004c0.023,0,0.05,0.001,0.075,0.003l0.041,0.004c0.02,0,0.037,0.004,0.055,0.004
		c0.426,0.015,0.812,0.022,1.217,0.01h0.068c0.052,0,0.094,0.029,0.119,0.069c0.027,0.039,0.03,0.091,0.003,0.138l-0.024,0.06
		c-0.059,0.106-0.106,0.217-0.156,0.32c-0.061,0.136-0.115,0.25-0.168,0.354l-0.013,0.022c-0.021,0.042-0.06,0.065-0.104,0.071
		l-0.099,0.01c-0.193,0.022-0.371,0.041-0.549,0.047c-0.217,0.004-0.428,0.01-0.637,0.018l-0.162,0.005
		c-0.052,0-0.096-0.025-0.119-0.062c-0.029-0.042-0.031-0.094-0.01-0.141L146.162,120.778z M147.318,119.273
		c-0.162,0-0.326-0.005-0.531-0.005c-0.047-0.004-0.097-0.01-0.145-0.013l-0.05-0.005c-0.05-0.003-0.101-0.003-0.15-0.008
		l-0.071-0.005c-0.049-0.003-0.092-0.028-0.116-0.075s-0.022-0.103,0.005-0.142l0.039-0.058c0.094-0.145,0.163-0.281,0.205-0.411
		l0.014-0.029c0.018-0.058,0.071-0.091,0.129-0.091h0.033c0.076,0.003,0.135-0.005,0.171,0.019l0.038,0.02
		c0.133,0.074,0.283,0.162,0.42,0.176c0.239,0.027,0.564,0.007,0.857-0.014h0.035c0.07-0.006,0.131-0.009,0.193-0.014l0.088-0.002
		c0.057,0,0.101,0.023,0.129,0.067c0.023,0.048,0.022,0.107-0.01,0.146l-0.043,0.072c-0.062,0.094-0.129,0.188-0.193,0.278
		c-0.036,0.052-0.076,0.074-0.119,0.074l-0.045,0.003C147.949,119.269,147.641,119.273,147.318,119.273z M148.292,120.623
		c0.077-0.165,0.197-0.417,0.331-0.629c0.034-0.06,0.078-0.082,0.123-0.082c0.604-0.032,1.225-0.086,1.869-0.17l0.076-0.015
		c0.061-0.008,0.102,0.017,0.135,0.062c0.032,0.049,0.035,0.104,0.009,0.146l-0.3,0.575c-0.021,0.039-0.057,0.067-0.099,0.072
		l-0.577,0.106c-0.4,0.093-0.817,0.135-1.213,0.179l-0.244,0.025H148.4c-0.059,0-0.102-0.022-0.129-0.064
		c-0.025-0.035-0.03-0.087-0.01-0.131L148.292,120.623z M154.679,120.264c-0.081-0.174-0.003-0.376,0.169-0.457
		c0.167-0.074,0.379,0.003,0.452,0.17c0.217,0.465-0.085,1.32-0.087,1.323c-0.052,0.139-0.184,0.226-0.324,0.226
		c-0.041,0-0.079-0.007-0.119-0.019c-0.087-0.035-0.152-0.097-0.195-0.181c-0.039-0.086-0.039-0.175-0.01-0.263
		C154.668,120.793,154.72,120.352,154.679,120.264z M155.322,118.004l-0.09,0.03c-0.203,0.064-0.416,0.126-0.621,0.179l-0.307,0.091
		c-0.008,0.002-0.029,0.005-0.038,0.005c-0.044,0-0.077-0.016-0.106-0.052c-0.037-0.04-0.043-0.097-0.018-0.147l0.039-0.086
		c0.061-0.127,0.115-0.246,0.158-0.356l0.008-0.031c0.023-0.052,0.073-0.09,0.134-0.09h0.065h0.002c0.305,0,0.542,0.052,0.72,0.159
		l0.083,0.046c0.049,0.026,0.074,0.081,0.068,0.135C155.41,117.943,155.37,117.987,155.322,118.004z M154.299,118.808
		c0.155-0.101,0.375-0.043,0.471,0.109c0.098,0.161,0.053,0.372-0.105,0.475c-0.219,0.134-0.776,0.333-1.076,0.355
		c-0.002,0.002-0.025,0.002-0.027,0.002c-0.176,0-0.326-0.138-0.342-0.314c-0.016-0.187,0.124-0.356,0.314-0.374
		C153.719,119.049,154.182,118.881,154.299,118.808z M153.402,120.702c-0.072-0.224,0.051-0.468,0.273-0.539
		c0.22-0.068,0.467,0.056,0.533,0.278c0.096,0.294,0.068,0.655-0.082,1.117c-0.057,0.175-0.217,0.294-0.402,0.294
		c-0.047,0-0.09-0.005-0.135-0.022c-0.105-0.032-0.193-0.108-0.244-0.212c-0.051-0.1-0.061-0.215-0.026-0.321
		C153.439,120.935,153.424,120.767,153.402,120.702z M153.889,117.896c-0.062,0.128-0.131,0.26-0.191,0.375
		c-0.016,0.029-0.029,0.057-0.044,0.079l-0.007,0.021l-0.033,0.063c-0.027,0.052-0.06,0.077-0.101,0.088
		c-0.478,0.114-0.974,0.229-1.491,0.321l-0.09,0.015c-0.006,0.003-0.021,0.006-0.025,0.006c-0.046,0-0.09-0.025-0.115-0.062
		c-0.03-0.035-0.033-0.101-0.006-0.146l0.049-0.079c0.102-0.184,0.178-0.344,0.221-0.489l0.008-0.026
		c0.014-0.049,0.057-0.088,0.105-0.099l0.166-0.03c0.143-0.021,0.334-0.065,0.537-0.116l0.039-0.012
		c0.254-0.061,0.516-0.12,0.783-0.17l0.085-0.016c0.053-0.013,0.106,0.015,0.134,0.054c0.033,0.045,0.039,0.099,0.016,0.148
		L153.889,117.896z M152.575,119.404l0.046-0.008c0.035-0.009,0.08,0,0.111,0.022c0.027,0.02,0.051,0.057,0.057,0.094l0.003,0.047
		c0.026,0.189-0.029,0.356-0.157,0.495c-0.023,0.023-0.044,0.04-0.072,0.048c-0.387,0.116-0.809,0.222-1.285,0.32l-0.092,0.014
		c-0.005,0.005-0.02,0.005-0.025,0.005c-0.047,0-0.088-0.021-0.113-0.062c-0.03-0.029-0.034-0.093-0.011-0.145l0.041-0.076
		c0.08-0.154,0.164-0.31,0.248-0.453c0.028-0.05,0.06-0.067,0.099-0.081l0.021-0.005
		C151.826,119.557,152.205,119.489,152.575,119.404z M152.828,121.436c-0.002,0.015-0.008,0.034-0.021,0.048
		c-0.007,0.009-0.023,0.025-0.031,0.03c-0.134,0.189-0.447,0.47-1.578,0.752c-0.008,0.002-0.017,0.002-0.023,0.002
		c-0.03,0-0.061-0.013-0.078-0.039c-0.023-0.033-0.026-0.075-0.008-0.112c0.166-0.291,0.344-0.631,0.357-0.989v-0.035
		c0-0.062,0.047-0.118,0.105-0.129l0.037-0.005c0.283-0.063,0.576-0.14,0.869-0.227l0.034-0.005c0.05-0.016,0.11,0.009,0.144,0.047
		l0.021,0.025C152.792,120.991,152.854,121.212,152.828,121.436z M151.573,118.391c-0.083,0.139-0.198,0.312-0.346,0.523
		c-0.037,0.05-0.071,0.068-0.11,0.073c-0.693,0.104-1.375,0.178-2.038,0.223l-0.083,0.004c-0.061,0-0.104-0.022-0.131-0.071
		c-0.024-0.032-0.024-0.088,0-0.135l0.045-0.07c0.056-0.098,0.104-0.185,0.145-0.289l0.01-0.024
		c0.018-0.043,0.061-0.079,0.111-0.085l0.027-0.003c0.629-0.085,1.27-0.218,1.887-0.355l0.381-0.082
		c0.048-0.01,0.111,0.011,0.141,0.058c0.035,0.041,0.037,0.101,0.009,0.149L151.573,118.391z M148.817,121.584l0.005-0.038
		c0.01-0.061,0.059-0.109,0.123-0.118l0.031-0.005c0.291-0.029,0.635-0.066,0.968-0.144l0.998-0.189
		c0.044-0.005,0.094,0.007,0.127,0.04c0.032,0.035,0.044,0.087,0.032,0.133l-0.014,0.062c-0.062,0.254-0.199,0.501-0.344,0.763
		c-0.033,0.052-0.06,0.108-0.083,0.16c-0.021,0.041-0.038,0.076-0.058,0.113c-0.014,0.028-0.04,0.045-0.069,0.052
		c-0.59,0.12-1.304,0.227-2.13,0.331h-0.01c-0.037,0-0.069-0.018-0.084-0.047c-0.021-0.032-0.021-0.074,0-0.107
		C148.521,122.299,148.778,121.943,148.817,121.584z M150.373,124.194c0.1-0.276,0.161-0.548,0.214-0.777l0.004-0.023
		c0.013-0.055,0.054-0.098,0.106-0.106l0.033-0.009c0.517-0.086,0.946-0.174,1.354-0.27c0.098-0.021,0.195-0.045,0.292-0.07
		l0.451-0.119c0.049-0.017,0.112,0.008,0.142,0.043c0.036,0.047,0.042,0.107,0.019,0.152l-0.045,0.089
		c-0.087,0.155-0.181,0.323-0.262,0.472c-0.088,0.155-0.174,0.318-0.256,0.471c-0.027,0.047-0.059,0.074-0.094,0.083
		c-0.004,0-0.025,0.009-0.025,0.009c-0.302,0.063-0.601,0.113-0.883,0.158l-0.233,0.043c-0.08,0.014-0.159,0.025-0.238,0.038
		c-0.042,0.009-0.077,0.013-0.114,0.019l-0.338,0.047h-0.008c-0.059,0-0.094-0.02-0.119-0.051c-0.034-0.034-0.044-0.094-0.023-0.136
		L150.373,124.194z M152.99,123.674c0.174-0.307,0.355-0.64,0.479-0.964l0.01-0.018c0.017-0.043,0.05-0.072,0.091-0.083l0.133-0.042
		c0.209-0.059,0.43-0.125,0.639-0.197c0.364-0.118,0.753-0.263,1.222-0.452l0.101-0.041c0.011-0.005,0.035-0.01,0.051-0.01
		c0.039,0,0.074,0.015,0.104,0.043c0.037,0.042,0.045,0.102,0.024,0.155l-0.044,0.094c-0.175,0.377-0.328,0.774-0.442,1.076
		c0,0.006-0.01,0.023-0.01,0.023c-0.019,0.042-0.052,0.07-0.091,0.083c-0.342,0.117-0.724,0.249-1.115,0.348
		c-0.279,0.088-0.581,0.168-0.952,0.253l-0.094,0.022c-0.007,0.004-0.024,0.004-0.032,0.004c-0.046,0-0.088-0.021-0.113-0.055
		c-0.031-0.047-0.036-0.102-0.008-0.153L152.99,123.674z M155.867,122.798c0.223-0.543,0.422-0.95,0.622-1.244
		c0.017-0.029,0.037-0.047,0.06-0.062c0.386-0.175,0.787-0.374,1.23-0.604l0.09-0.05c0.014-0.01,0.047-0.018,0.064-0.018
		c0.033,0,0.064,0.015,0.088,0.04c0.041,0.029,0.062,0.086,0.042,0.145l-0.026,0.092c-0.088,0.299-0.201,0.58-0.314,0.842
		c-0.066,0.155-0.129,0.298-0.188,0.45c-0.006,0.028-0.022,0.059-0.05,0.08l-0.021,0.014c-0.046,0.023-0.063,0.033-0.087,0.044
		c0,0-0.021,0.01-0.021,0.013c-0.05,0.019-0.094,0.036-0.136,0.055l-0.338,0.137c-0.229,0.094-0.505,0.203-0.779,0.309l-0.094,0.032
		c-0.01,0.003-0.039,0.008-0.047,0.008c-0.037,0-0.07-0.016-0.1-0.037c-0.043-0.047-0.052-0.102-0.031-0.148L155.867,122.798z
		 M161.12,120.35c0.015,0.059-0.005,0.118-0.051,0.155l-0.301,0.206c-0.118,0.077-0.243,0.155-0.389,0.235l-0.13,0.074
		c-0.015,0.013-0.055,0.022-0.068,0.022c-0.037,0-0.07-0.017-0.098-0.033c-0.043-0.047-0.056-0.114-0.029-0.169l0.066-0.13
		c0.258-0.499,0.482-1.006,0.423-1.361l-0.004-0.029c-0.011-0.052,0.014-0.107,0.06-0.139l0.027-0.019
		c0.198-0.119,0.377-0.213,0.544-0.282l0.066-0.027c0.01-0.004,0.04-0.009,0.052-0.009c0.033,0,0.061,0.009,0.084,0.026
		c0.038,0.032,0.061,0.079,0.055,0.128l-0.008,0.066c-0.037,0.359-0.165,0.844-0.305,1.141c-0.019,0.045-0.015,0.086-0.004,0.115
		L161.12,120.35z M160.646,117.782c-0.039,0.188-0.103,0.417-0.195,0.684c-0.018,0.045-0.035,0.073-0.062,0.089
		c-0.254,0.144-0.481,0.292-0.696,0.438l-0.063,0.047c-0.029,0.016-0.059,0.032-0.091,0.054l-0.075,0.05
		c-0.035,0.022-0.074,0.049-0.112,0.071l-0.11,0.07c-0.018,0.012-0.059,0.023-0.076,0.023c-0.034,0-0.061-0.012-0.086-0.029
		c-0.052-0.035-0.066-0.104-0.043-0.16l0.049-0.126c0.1-0.253,0.217-0.553,0.267-0.85c0.011-0.063,0.04-0.105,0.084-0.126
		c0.001,0,0.02-0.007,0.022-0.007l0.189-0.093c0.084-0.036,0.167-0.075,0.25-0.113c0.102-0.038,0.201-0.085,0.299-0.13l0.273-0.128
		c0.014-0.005,0.042-0.009,0.057-0.009c0.028,0,0.061,0.009,0.082,0.025c0.043,0.037,0.062,0.092,0.054,0.143L160.646,117.782z
		 M158.957,116.648c-0.004,0.009-0.01,0.023-0.015,0.028c-0.019,0.032-0.046,0.055-0.079,0.068l-0.211,0.072
		c-0.062,0.023-0.123,0.043-0.184,0.06c-0.027,0.013-0.043,0.019-0.061,0.019c-0.006,0-0.019-0.004-0.025-0.006
		c-0.135-0.034-0.229-0.081-0.309-0.145l-0.023-0.021c-0.053-0.047-0.064-0.108-0.037-0.163l0.014-0.029
		c0.105-0.231,0.162-0.437,0.164-0.609c0.006-0.061,0.02-0.097,0.047-0.123l0.086-0.069c0.008-0.005,0.015-0.008,0.023-0.013
		c0.305-0.146,0.614-0.296,0.918-0.446l0.096-0.05c0.013-0.009,0.046-0.017,0.06-0.017c0.033,0,0.064,0.011,0.089,0.03
		c0.049,0.045,0.062,0.106,0.045,0.155l-0.03,0.097C159.371,115.963,159.064,116.475,158.957,116.648z M158.629,117.427l0.092-0.038
		c0.014-0.002,0.039-0.009,0.054-0.009c0.036,0,0.071,0.014,0.098,0.042c0.039,0.04,0.052,0.102,0.028,0.148l-0.051,0.126
		c-0.004,0.014-0.031,0.048-0.049,0.055c-0.004,0.002-0.026,0.02-0.031,0.024l-0.943,0.422c-0.016,0.008-0.043,0.016-0.057,0.016
		c-0.029,0-0.057-0.011-0.084-0.025c-0.037-0.023-0.059-0.075-0.054-0.125l0.009-0.095c0-0.004,0.002-0.029,0.002-0.032l0.003-0.029
		c0.003-0.052,0.036-0.103,0.084-0.124l0.026-0.007C158.051,117.654,158.343,117.537,158.629,117.427z M157.676,118.85l0.127-0.061
		c0.225-0.106,0.445-0.211,0.66-0.318l0.269-0.128c0.015-0.008,0.046-0.014,0.06-0.014c0.035,0,0.067,0.014,0.096,0.038
		c0.042,0.032,0.056,0.097,0.033,0.15l-0.048,0.131c-0.031,0.098-0.067,0.188-0.107,0.287c-0.112,0.274-0.191,0.507-0.249,0.73
		c-0.016,0.054-0.033,0.081-0.066,0.104l-0.174,0.098c-0.074,0.049-0.151,0.092-0.231,0.138c-0.079,0.041-0.161,0.09-0.241,0.132
		l-0.191,0.096c-0.04,0.023-0.063,0.029-0.086,0.029c-0.01,0-0.037-0.006-0.048-0.009c-0.124-0.049-0.212-0.116-0.278-0.22
		c-0.063-0.099-0.104-0.195-0.12-0.309c-0.005-0.033-0.003-0.062,0.01-0.087c0.052-0.125,0.087-0.236,0.104-0.342l0.02-0.045
		c0.003-0.008,0.008-0.018,0.013-0.024C157.328,119.096,157.471,118.978,157.676,118.85z M158.113,121.83
		c0.092-0.229,0.201-0.5,0.277-0.792c0.018-0.06-0.005-0.12-0.059-0.163l-0.088-0.076c-0.047-0.039-0.064-0.097-0.046-0.151
		c0.022-0.061,0.073-0.091,0.13-0.091h0.074c0.605-0.353,1.089-0.645,1.481-0.907l0.107-0.071c0.017-0.014,0.06-0.023,0.079-0.023
		c0.031,0,0.059,0.007,0.086,0.028c0.043,0.036,0.062,0.098,0.043,0.153l-0.041,0.125c-0.094,0.255-0.262,0.611-0.508,1.06
		c-0.105,0.203-0.229,0.433-0.279,0.571c-0.014,0.037-0.037,0.062-0.061,0.084c-0.222,0.12-0.462,0.254-0.727,0.376
		c-0.025,0.011-0.059,0.028-0.092,0.043l-0.236,0.116c-0.012,0.01-0.045,0.016-0.059,0.016c-0.037,0-0.07-0.013-0.098-0.03
		c-0.039-0.043-0.053-0.106-0.036-0.158L158.113,121.83z M162.859,118.233c-0.131-0.04-0.275-0.073-0.445-0.093
		c-0.429-0.052-0.867-0.021-1.266,0.094l-0.071,0.018c-0.05,0.012-0.107,0-0.141-0.039c-0.03-0.032-0.047-0.075-0.032-0.124
		l0.018-0.075c0.041-0.167,0.064-0.335,0.071-0.495v-0.033c0.006-0.059,0.043-0.111,0.099-0.132l0.035-0.008
		c0.195-0.052,0.372-0.102,0.546-0.13c0.116-0.014,0.21-0.019,0.302-0.028l0.043-0.006c0.148-0.015,0.289-0.024,0.426-0.031
		l0.306,0.026c0.112,0.011,0.235,0.025,0.347,0.046l0.253,0.065c0.03,0.007,0.057,0.019,0.085,0.026
		C163.255,117.628,163.058,117.931,162.859,118.233z M163.604,116.998c-0.076-0.025-0.145-0.051-0.234-0.078l-0.193-0.06
		c-0.136-0.025-0.314-0.052-0.484-0.067l-0.041-0.006c-0.052-0.007-0.111-0.014-0.168-0.025l-0.344-0.045
		c-0.07-0.01-0.121-0.068-0.121-0.139c0-0.071,0.053-0.135,0.121-0.14l0.33-0.038c0.152-0.02,0.301-0.034,0.461-0.047
		c0.068,0,0.105,0.033,0.131,0.064c0.025,0.021,0.045,0.039,0.063,0.047c0.063,0.022,0.112,0.01,0.178-0.084
		c0.023-0.029,0.062-0.051,0.104-0.052l0.065-0.003c0.02,0,0.043-0.002,0.062-0.002h0.078c0.126,0,0.217,0.01,0.326,0.015
		C163.828,116.56,163.721,116.782,163.604,116.998z M164.12,115.981c-0.106-0.013-0.2-0.026-0.326-0.035l-0.06-0.002
		c-0.047-0.003-0.09-0.027-0.113-0.069c-0.023-0.047-0.029-0.094-0.006-0.129l0.029-0.062c0.066-0.127,0.117-0.258,0.162-0.386
		l0.012-0.032c0.016-0.056,0.066-0.093,0.127-0.096l0.029-0.003c0.154-0.008,0.334-0.023,0.504-0.036
		C164.363,115.416,164.25,115.702,164.12,115.981z M163.137,114.87c-0.617,0-0.789-0.054-0.865-0.108l-0.038-0.032
		c-0.011-0.002-0.017-0.01-0.021-0.021c-0.121-0.195,0.053-0.454,0.222-0.706c0.173-0.263,0.362-0.541,0.251-0.814
		c-0.199-0.5-1.135-0.602-1.238-0.608c-0.093,0-0.166,0.06-0.177,0.142c-0.005,0.085,0.062,0.168,0.145,0.176
		c0.218,0.021,0.864,0.141,0.978,0.417c0.005,0.014,0.005,0.029,0.005,0.039c0,0.108-0.067,0.233-0.231,0.472
		c-0.197,0.304-0.446,0.671-0.234,1.035c0.054,0.093,0.281,0.296,1.324,0.318h0.064c0.042,0,0.088,0.023,0.113,0.07
		c0.023,0.036,0.029,0.088,0.01,0.126l-0.029,0.062c-0.042,0.086-0.085,0.172-0.131,0.266c-0.019,0.027-0.027,0.05-0.035,0.074
		l-0.044,0.076c-0.034,0.074-0.113,0.074-0.146,0.076c-0.705,0.013-1.845,0.114-3.275,0.528l-0.094,0.026
		c-0.057,0.014-0.117-0.009-0.145-0.05c-0.035-0.038-0.045-0.099-0.021-0.147l0.046-0.086c0.236-0.471,0.348-0.854,0.367-1.201
		c0.004-0.047,0.033-0.094,0.07-0.111l0.053-0.033l0.08,0.07l-0.05-0.084c0.044-0.02,0.074-0.06,0.085-0.1
		c0.016-0.044,0.01-0.08-0.011-0.122c-0.038-0.067-0.142-0.102-0.214-0.062c0,0-0.041,0.021-0.044,0.021l-0.081,0.041
		c-0.043,0.011-0.05,0.019-0.09,0.007c-0.039,0.012-0.07,0.035-0.094,0.065c-0.014,0.014-0.043,0.042-0.058,0.053
		c-1.724,0.903-3.464,1.624-5.175,2.151c-0.02,0.004-0.039,0.004-0.059,0l-0.035-0.012c-0.012-0.007-0.018-0.01-0.031-0.01
		c-0.015,0.003-0.068,0.039-0.135,0.097c-0.01,0.015-0.025,0.022-0.039,0.024c-2.408,0.724-4.811,1.089-7.144,1.089
		c-3.615,0-5.769-0.887-5.79-0.896c-0.069-0.028-0.176,0.01-0.206,0.089c-0.018,0.037-0.018,0.077-0.002,0.121
		c0.017,0.04,0.044,0.069,0.085,0.085c0.074,0.031,0.277,0.11,0.61,0.219l0.05,0.015c0.041,0.013,0.073,0.041,0.089,0.083
		c0.015,0.035,0.011,0.082-0.011,0.118l-0.026,0.047c-0.063,0.107-0.155,0.226-0.319,0.411c-0.033,0.032-0.088,0.052-0.138,0.039
		l-0.423-0.118l-0.804-0.252c-1.177-0.358-2.197-0.764-2.956-1.077l-0.078-0.028c-0.048-0.021-0.083-0.066-0.086-0.118
		c-0.004-0.042,0.012-0.089,0.045-0.117c-0.104-0.231-0.23-0.548-0.205-0.842c0.004-0.041-0.008-0.085-0.035-0.115
		c-0.03-0.036-0.066-0.055-0.119-0.058c-0.082,0-0.154,0.063-0.162,0.14c-0.017,0.171,0.002,0.348,0.062,0.553l0.024,0.091
		c0.015,0.045,0,0.106-0.039,0.144c-0.031,0.023-0.061,0.033-0.094,0.033c-0.017,0-0.047-0.007-0.061-0.012l-0.081-0.044
		c-0.497-0.225-0.967-0.454-1.408-0.688c-0.039-0.025-0.061-0.053-0.07-0.091l-0.009-0.033c-0.053-0.191-0.104-0.363-0.16-0.533
		c-0.164-0.521-0.304-0.986-0.345-1.438l-0.01-0.083c-0.002-0.054,0.02-0.108,0.065-0.133c0.017-0.009,0.056-0.022,0.073-0.022
		c0.028,0,0.056,0.014,0.077,0.022l0.068,0.048c0.818,0.516,1.361,0.795,1.365,0.795c0.083,0.043,0.181,0.006,0.219-0.064
		c0.017-0.039,0.02-0.08,0.01-0.122c-0.016-0.041-0.044-0.074-0.089-0.099c-0.171-0.09-0.789-0.43-1.597-0.953l-0.028-0.018
		c-0.053-0.034-0.076-0.096-0.057-0.157l0.008-0.027c0.01-0.044,0.007-0.08-0.005-0.118c-0.126-0.262-0.153-0.408-0.188-0.599
		c-0.021-0.118-0.045-0.253-0.102-0.439c-0.021-0.075-0.118-0.129-0.199-0.108c-0.039,0.01-0.072,0.041-0.093,0.076
		c-0.022,0.041-0.024,0.081-0.013,0.123c0.053,0.171,0.073,0.302,0.095,0.408l0.041,0.206c0.009,0.056-0.016,0.113-0.063,0.146
		c-0.014,0.013-0.054,0.021-0.074,0.021c-0.03,0-0.057-0.009-0.082-0.023l-0.085-0.061c-0.379-0.271-0.759-0.558-1.132-0.854
		l-0.033-0.038c-0.008-0.009-0.01-0.016-0.015-0.025c-0.206-0.453-0.297-0.936-0.3-1.565c0-0.413,0.018-0.821,0.247-1.243
		c0.013-0.025,0.029-0.05,0.047-0.077l0.06-0.101c0.032-0.046,0.095-0.074,0.153-0.06c0.047,0.008,0.088,0.055,0.104,0.108
		l0.037,0.161c0.012,0.044,0.018,0.082,0.026,0.124c0.116,0.445,0.282,0.86,0.392,1.137c0.075,0.168,0.153,0.329,0.23,0.481
		c0.038,0.067,0.118,0.101,0.187,0.086c0.085-0.016,0.14-0.106,0.119-0.192l-0.379-1.641c-0.05-0.21-0.083-0.43-0.111-0.602
		c-0.018-0.118-0.036-0.213-0.056-0.322c-0.005-0.043,0.004-0.084,0.03-0.11l0.021-0.035c0.045-0.053,0.099-0.118,0.173-0.169
		c0.095-0.07,0.192-0.117,0.307-0.153l0.048-0.013c0.035-0.006,0.084,0,0.111,0.017c0.035,0.025,0.057,0.059,0.062,0.101
		l0.019,0.115c0.007,0.056,0.012,0.096,0.024,0.14l0.077,0.327c0.049,0.224,0.098,0.44,0.158,0.65
		c0.162,0.639,0.375,1.261,0.563,1.789c0.147,0.396,0.268,0.682,0.312,0.782c0.031,0.071,0.118,0.113,0.189,0.099
		c0.04-0.009,0.075-0.034,0.098-0.071c0.023-0.041,0.029-0.079,0.021-0.123l-0.625-2.61c-0.053-0.207-0.094-0.412-0.135-0.625
		c-0.025-0.119-0.047-0.224-0.069-0.332c-0.011-0.063-0.023-0.112-0.033-0.169l-0.005-0.031c-0.003-0.019-0.015-0.08-0.002-0.13
		c0.175-0.437,0.402-0.761,0.622-0.905c0.104-0.068,0.202-0.102,0.309-0.115l0.043-0.006c0.035,0,0.073,0.011,0.098,0.029
		c0.036,0.028,0.052,0.064,0.056,0.099l0.012,0.198c0.007,0.096,0.017,0.194,0.02,0.301c0.016,0.175,0.039,0.351,0.067,0.567
		l0.012,0.083c0.011,0.081,0.021,0.164,0.033,0.243c0.106,0.6,0.239,1.194,0.373,1.621c0.124,0.432,0.234,0.71,0.239,0.721
		c0.03,0.069,0.095,0.111,0.178,0.104c0.042-0.011,0.079-0.037,0.104-0.067c0.024-0.036,0.034-0.078,0.027-0.122l-0.122-0.731
		c-0.079-0.451-0.159-1.04-0.227-1.612c-0.012-0.106-0.021-0.203-0.033-0.303l-0.002-0.052c-0.022-0.176-0.037-0.344-0.047-0.511
		c-0.033-0.74-0.016-0.774-0.005-0.8c0.172-0.244,0.345-0.438,0.511-0.582c0.118-0.104,0.229-0.163,0.341-0.188l0.061-0.015
		c0.042-0.01,0.096,0.005,0.125,0.039c0.033,0.025,0.049,0.072,0.041,0.116l-0.077,0.556l-0.064,1.177
		c-0.011,0.137,0,0.277,0.01,0.415c0.006,0.087,0.012,0.157,0.016,0.229l0.045,0.653l0.098,0.62
		c0.035,0.288,0.114,0.558,0.189,0.819c0.031,0.105,0.056,0.193,0.075,0.273l0.081,0.216c0.073,0.201,0.138,0.38,0.207,0.513
		c0.042,0.084,0.096,0.199,0.151,0.283c0.039,0.059,0.13,0.087,0.197,0.057c0.034-0.012,0.059-0.034,0.076-0.068
		c-0.011-0.015-0.03-0.035-0.044-0.051c-0.029-0.032-0.059-0.065-0.077-0.099c-0.013-0.033-0.057-0.141-0.099-0.29
		c-0.04-0.115-0.088-0.323-0.136-0.516l-0.047-0.183c-0.016-0.129-0.035-0.237-0.056-0.344c-0.04-0.228-0.08-0.461-0.094-0.717
		l-0.056-0.577v-0.622c0.005-0.08,0.002-0.146,0.002-0.216l-0.002-0.029c0-0.135-0.001-0.255,0.008-0.381l0.088-1.138
		c0.038-0.214,0.042-0.225,0.045-0.232c0.348-0.676,1.005-1.263,1.464-1.553l0.08-0.056c0.014-0.007,0.058-0.02,0.075-0.02
		c0.026,0,0.053,0.008,0.075,0.02c0.048,0.032,0.072,0.089,0.063,0.139l-0.013,0.096c-0.12,0.766-0.12,1.374-0.12,1.382
		c0,0.086,0.07,0.158,0.158,0.158c0.089,0,0.159-0.072,0.159-0.158c0-0.008,0.004-0.782,0.173-1.664l0.01-0.042
		c0.013-0.066,0.07-0.11,0.142-0.11l0.058,0.008c0.075,0,0.356-0.108,0.606-0.201c0.392-0.154,0.837-0.322,1.064-0.322
		c0.095,0,0.163,0.03,0.198,0.088c0.037,0.06,0.033,0.135-0.017,0.225c-0.464,0.939-0.912,2.628-0.818,3.731v0.052
		c-0.001,0.031-0.004,0.041-0.004,0.053c0,4.191,3.409,7.601,7.599,7.601c4.188,0,7.597-3.409,7.597-7.601
		c0-0.529-0.056-1.065-0.169-1.588c-0.066-0.285-0.127-0.565-0.244-0.824c-0.01-0.016-0.02-0.036-0.033-0.061
		c-0.07-0.133-0.17-0.32-0.076-0.463c0.096-0.144,0.213-0.171,0.298-0.171c0.258,0,0.524,0.288,0.651,0.428
		c0.3,0.321,0.398,0.743,0.494,1.15l0.037,0.15c0.026,0.09,0.061,0.196,0.074,0.312l0.154,1.034l0.02,0.574
		c0.004,0.062,0.006,0.116,0.008,0.171l0.004,0.035c0.008,0.115,0.012,0.247,0.002,0.376l-0.033,0.539
		c-0.012,0.259-0.055,0.497-0.095,0.712c-0.019,0.088-0.03,0.174-0.04,0.253l-0.047,0.178c-0.047,0.208-0.09,0.382-0.137,0.505
		c-0.035,0.12-0.076,0.211-0.09,0.248c-0.037,0.078-0.009,0.165,0.062,0.207c0.075,0.044,0.179,0.005,0.233-0.084
		c0.029-0.052,0.072-0.142,0.113-0.229c0.069-0.148,0.14-0.346,0.211-0.552l0.057-0.153c0.027-0.08,0.053-0.167,0.074-0.265
		l0.056-0.205c0.05-0.164,0.097-0.346,0.118-0.522l0.104-0.598c0.02-0.112,0.029-0.242,0.035-0.364
		c0.004-0.085,0.008-0.162,0.019-0.233l0.037-0.615l-0.052-1.142c-0.004-0.107-0.021-0.214-0.039-0.309
		c-0.01-0.061-0.021-0.118-0.029-0.174l-0.055-0.337c-0.004-0.055,0.023-0.111,0.07-0.141c0.014-0.008,0.053-0.021,0.071-0.021
		c0.028,0,0.06,0.016,0.083,0.032l0.117,0.091l1.3,1.177c0.241,0.221,0.463,0.418,0.701,0.619l0.057,0.083
		c0.036,0.047,0.036,0.111,0,0.155l-0.019,0.03c-0.028,0.04-0.033,0.063-0.033,0.076l-0.005,0.065
		c-0.009,0.077-0.019,0.367,0.019,0.731c0.028,0.141,0.023,0.301,0.019,0.459c0,0.104-0.005,0.215,0.001,0.328
		c0.016,0.213-0.015,0.439-0.038,0.632c-0.017,0.115-0.028,0.202-0.04,0.284c-0.018,0.198-0.061,0.395-0.105,0.6l-0.01,0.047
		c-0.02,0.088-0.041,0.17-0.056,0.259c-0.034,0.121-0.067,0.215-0.101,0.331c-0.051,0.169-0.092,0.323-0.143,0.459
		c-0.082,0.232-0.152,0.413-0.207,0.528c-0.043,0.116-0.09,0.202-0.094,0.212c-0.04,0.069-0.02,0.16,0.051,0.2
		c0.057,0.047,0.178,0.024,0.221-0.035l0.029-0.044c0.004-0.01,0.037-0.064,0.092-0.165c0.084-0.146,0.18-0.335,0.271-0.552
		c0.081-0.149,0.145-0.326,0.201-0.502l0.016-0.036c0.031-0.089,0.061-0.182,0.094-0.263c0.021-0.085,0.049-0.186,0.086-0.318
		c0.059-0.215,0.113-0.416,0.143-0.621c0.008-0.096,0.023-0.184,0.035-0.28c0.042-0.259,0.073-0.479,0.062-0.693
		c0-0.101,0-0.191,0.002-0.281c0.005-0.203,0.009-0.377-0.019-0.521l-0.009-0.047c-0.01-0.034,0-0.074,0.022-0.106
		c0.019-0.032,0.057-0.056,0.099-0.061l0.035-0.005c0.037-0.002,0.064-0.006,0.097-0.011l0.052-0.01
		c0.123-0.018,0.271-0.04,0.415-0.01c0.014,0,0.022,0.007,0.036,0.015c0.197,0.127,0.387,0.239,0.577,0.351
		c0.006,0.007,0.013,0.012,0.017,0.019c1.705,1.738,0.869,3.547,0.834,3.626c-0.04,0.079-0.006,0.174,0.073,0.213
		c0.071,0.034,0.173,0.005,0.212-0.074c0.027-0.061,0.184-0.424,0.238-0.945l0.006-0.04c0.008-0.071,0.067-0.124,0.135-0.124h0.04
		c0.198,0,0.388,0.086,0.521,0.239c0.119,0.135,0.176,0.317,0.232,0.495c0.1,0.307,0.158,0.48,0.359,0.491l0.062,0.007
		c0.048,0,0.09,0.027,0.113,0.064c0.02,0.037,0.016,0.079,0.004,0.114c-0.005,0.017-0.01,0.031-0.016,0.046l-0.016,0.029
		c-0.137,0.28-0.282,0.472-0.299,0.491c-0.047,0.056-0.027,0.162,0.037,0.209c0.016,0.011,0.039,0.009,0.059,0.013
		c-0.121,0.392-0.253,0.778-0.398,1.158C164.066,114.844,163.546,114.87,163.137,114.87z M134.319,115.248l0.033,0.102
		c0.017,0.052,0.001,0.11-0.04,0.146c-0.033,0.024-0.062,0.035-0.092,0.035c-0.017,0-0.047-0.008-0.061-0.014l-0.104-0.054
		c-0.471-0.27-0.935-0.554-1.381-0.844c-0.034-0.021-0.047-0.041-0.059-0.062c-0.243-0.494-0.378-1.162-0.407-1.983l-0.001-0.058
		c0-0.047,0.017-0.083,0.048-0.113c0.035-0.025,0.086-0.032,0.124-0.028l0.023,0.006c0.429,0.214,0.934,0.494,1.517,0.831
		c0.059,0.041,0.08,0.098,0.07,0.149l-0.007,0.028c-0.001,0.006-0.004,0.016-0.007,0.028
		C133.943,114.013,134.112,114.598,134.319,115.248z M153.017,104.166c-0.003-0.023-0.013-0.08,0.093-0.197
		c0.038-0.051,0.195-0.211,0.383-0.211c0.082,0,0.199,0.028,0.293,0.175c0.653,0.997,1.014,2.349,1.014,3.808
		c0,2.456-1.553,4.689-3.866,5.545l-0.061,0.023c-0.011,0-0.037,0.005-0.048,0.005c-0.033,0-0.061-0.008-0.086-0.022
		c-0.041-0.037-0.061-0.083-0.054-0.127l0.005-0.07c0.041-0.432,0.025-0.817,0.012-1.012l-0.002-0.032
		c-0.004-0.057,0.036-0.113,0.089-0.135l0.027-0.014c0.14-0.057,0.274-0.126,0.422-0.202c0.101-0.057,0.183-0.097,0.269-0.136
		c0.301-0.192,0.561-0.39,0.764-0.588l0.035-0.028c0.193-0.192,0.363-0.36,0.473-0.524c0.116-0.139,0.199-0.27,0.258-0.368
		l0.035-0.059c0.047-0.074,0.062-0.113,0.068-0.123l0.029-0.057c0.025-0.078-0.018-0.168-0.101-0.197
		c-0.07-0.026-0.178,0.019-0.204,0.094l-0.008,0.028c-0.002,0.006-0.008,0.015-0.016,0.028c-0.014,0.029-0.033,0.07-0.055,0.108
		l-0.018,0.034c-0.029,0.06-0.099,0.191-0.213,0.344c-0.1,0.157-0.255,0.325-0.434,0.513l-0.023,0.025
		c-0.191,0.182-0.435,0.37-0.734,0.56c-0.08,0.042-0.145,0.074-0.207,0.108c-0.18,0.097-0.368,0.189-0.575,0.26
		c-0.004,0-0.027,0.005-0.028,0.005c-0.004,0-0.019,0.006-0.053,0c-0.02,0.006-0.033,0.011-0.051,0.022
		c-0.006,0.003-0.026,0.015-0.031,0.017c-0.002,0-0.027,0.01-0.029,0.01c-0.026,0.005-0.043,0.012-0.065,0.014
		c-0.044,0.014-0.112,0.033-0.178,0.052c-0.12,0.033-0.243,0.065-0.373,0.091l-1.081,0.08c-0.02,0-0.038-0.003-0.054-0.013
		l-0.14-0.009c-0.059-0.012-0.112-0.015-0.166-0.021l-0.026-0.003c-0.175-0.019-0.359-0.035-0.51-0.098
		c-0.151-0.039-0.317-0.104-0.452-0.157l-0.04-0.017c-0.032-0.012-0.058-0.038-0.075-0.072c-0.016-0.032-0.018-0.067-0.003-0.104
		l0.013-0.033c0.08-0.232,0.152-0.442,0.216-0.638l0.009-0.029c0.024-0.063,0.092-0.108,0.16-0.094l0.028,0.005
		c0.295,0.039,0.563,0.066,0.757,0.069c0.179,0.007,0.3,0.003,0.344,0h0.031c0.042-0.003,0.078-0.022,0.109-0.047
		c0.029-0.032,0.043-0.074,0.043-0.118c0-0.087-0.074-0.153-0.158-0.153c-0.066,0-0.428-0.005-0.977-0.124l-0.045-0.007
		c-0.034-0.012-0.067-0.028-0.087-0.065c-0.021-0.031-0.027-0.072-0.018-0.107l0.027-0.102c0.019-0.07,0.037-0.136,0.052-0.197
		c0.018-0.084,0.023-0.16,0.033-0.251l0.002-0.039c0.006-0.043,0.023-0.073,0.051-0.097c0.022-0.021,0.057-0.035,0.09-0.035
		l0.059,0.005c0.168,0.02,0.334,0.03,0.491,0.03c2.547,0,4.62-2.069,4.62-4.616C153.076,104.641,153.054,104.401,153.017,104.166z
		 M155.866,91.997c0.142,0.073,0.287,0.142,0.428,0.218c-0.001,0.003-0.003,0.005-0.005,0.008c-0.008,0.043,0,0.085,0.025,0.121
		c0.026,0.036,0.062,0.059,0.113,0.07c0.104,0.021,0.225,0.045,0.348,0.072c0.205,0.121,0.403,0.249,0.602,0.378l-0.016,0.021
		c-0.141,0.189-0.277,0.389-0.404,0.593l-0.014,0.023c-0.022,0.043-0.069,0.069-0.122,0.069c-0.009,0-0.028,0-0.032-0.005
		l-0.029-0.008c-0.543-0.139-1.072-0.257-1.585-0.342l-0.067-0.014c-0.051-0.01-0.087-0.043-0.106-0.089
		c-0.017-0.043-0.01-0.097,0.024-0.133l0.036-0.055C155.334,92.558,155.607,92.251,155.866,91.997z M165.83,108.59
		c-0.008,0.338-0.028,0.671-0.053,1.004c-0.143-0.09-0.29-0.18-0.463-0.265c-0.234-0.115-0.467-0.218-0.717-0.322l-0.033-0.015
		c-0.166-0.069-0.326-0.145-0.484-0.213c-0.456-0.199-0.902-0.437-1.294-0.646c-0.51-0.306-0.925-0.59-1.274-0.873
		c-0.274-0.205-0.579-0.481-0.842-0.724l-0.023-0.024c-0.115-0.108-0.23-0.207-0.341-0.312l-1.271-1.11l-1.199-0.903
		c-0.043-0.03-0.053-0.079-0.057-0.118c-0.029-0.222,0.014-0.397,0.121-0.521c0.162-0.186,0.447-0.216,0.841-0.094
		c0.009,0.005,0.023,0.01,0.033,0.02c0.325,0.271,0.653,0.553,1.062,0.908c1.316,1.144,2.684,2.33,4.133,3.101
		c0.074,0.038,0.174,0.008,0.213-0.063c0.021-0.04,0.025-0.082,0.012-0.122c-0.01-0.037-0.037-0.067-0.084-0.1
		c-2.395-1.634-2.252-2.084-2.205-2.233c0.037-0.124,0.167-0.277,0.592-0.277c0.23,0,0.494,0.05,0.581,0.11
		c0.127,0.081,0.244,0.183,0.337,0.263l0.043,0.035c0.164,0.178,0.298,0.335,0.428,0.484c0.127,0.143,0.234,0.269,0.338,0.384
		l0.891,1.087c0.023,0.024,0.057,0.044,0.1,0.052l0.031,0.006c0.062,0.009,0.108,0.06,0.117,0.122l0.002,0.03
		c0.006,0.039,0.022,0.077,0.046,0.101c0.134,0.125,0.262,0.229,0.396,0.327C165.814,107.988,165.835,108.286,165.83,108.59z
		 M156.098,99.062l0.02-0.041c0.017-0.042,0.045-0.067,0.082-0.079c0.032-0.015,0.1-0.002,0.123,0.012l0.033,0.023
		c0.221,0.13,0.422,0.261,0.658,0.414l0.055,0.034c0.037,0.021,0.054,0.056,0.064,0.092c0.008,0.042,0,0.076-0.023,0.108
		l-0.025,0.035c-0.295,0.407-0.986,0.858-1.54,1.13c-0.032,0.014-0.054,0.022-0.077,0.022c-0.02,0-0.057-0.012-0.073-0.018
		c-0.134-0.065-0.257-0.117-0.383-0.167l-0.07-0.028c-0.048-0.017-0.08-0.059-0.091-0.108c-0.004-0.053,0.014-0.101,0.057-0.132
		l0.062-0.048C155.37,100.013,155.899,99.55,156.098,99.062z M155.936,98.199l-0.101-0.059c-0.046-0.028-0.091-0.055-0.136-0.08
		l-0.021-0.014c-0.05-0.024-0.086-0.05-0.124-0.071c-0.153-0.082-0.312-0.158-0.47-0.233l-0.087-0.046
		c-0.036-0.018-0.062-0.052-0.07-0.092c-0.013-0.036-0.003-0.078,0.021-0.112l0.114-0.153c0.022-0.029,0.052-0.047,0.085-0.053
		l0.037-0.01c0.029-0.006,0.038-0.006,0.052-0.006c0.056-0.006,0.103-0.008,0.146-0.008c0.486,0,0.588,0.285,0.689,0.584
		l0.063,0.186c0.022,0.049,0.003,0.113-0.044,0.15c-0.023,0.021-0.057,0.03-0.086,0.03
		C155.986,98.213,155.951,98.203,155.936,98.199z M158.808,93.875c-0.034,0.049-0.067,0.092-0.104,0.146l-0.024,0.027
		c-0.023,0.039-0.068,0.062-0.11,0.062c-0.011,0-0.04-0.004-0.05-0.008l-0.027-0.012c-0.361-0.13-0.713-0.247-1.051-0.349
		l-0.051-0.011c-0.043-0.016-0.078-0.044-0.095-0.084c-0.015-0.043-0.011-0.088,0.014-0.124l0.033-0.05
		c0.102-0.156,0.209-0.294,0.315-0.435C158.054,93.302,158.436,93.583,158.808,93.875z M161.312,96.242
		c-0.201,0.049-0.42,0.095-0.666,0.095c-0.16,0-0.313-0.016-0.465-0.053l-0.061-0.016c-0.043-0.013-0.078-0.046-0.096-0.085
		c-0.018-0.042-0.014-0.087,0.01-0.125l0.04-0.053c0.12-0.183,0.258-0.363,0.411-0.546l0.024-0.028
		c0.009-0.01,0.024-0.009,0.036-0.016C160.811,95.684,161.066,95.959,161.312,96.242z M159.984,95.051
		c0.049,0.02,0.08,0.067,0.086,0.121c0,0.059-0.032,0.104-0.082,0.126l-0.076,0.042c-0.494,0.245-0.886,0.367-1.197,0.367
		c-0.108,0-0.203-0.015-0.289-0.037l-0.047-0.018c-0.036-0.01-0.07-0.034-0.086-0.077c-0.018-0.035-0.018-0.083,0.005-0.115
		l0.209-0.456c0.046-0.098,0.094-0.183,0.137-0.263l0.061-0.109c0.022-0.044,0.073-0.072,0.122-0.072
		c0.012,0,0.037,0.005,0.051,0.011l0.034,0.013c0.339,0.137,0.681,0.28,0.996,0.432L159.984,95.051z M158.339,99.246h0.024
		c0.289,0,0.613,0.008,0.818,0.464c0.062,0.141,0.08,0.262,0.089,0.338c0.014,0.056-0.005,0.099-0.03,0.131
		c-0.026,0.031-0.04,0.042-0.049,0.047l-0.019,0.022c-0.023,0.024-0.056,0.039-0.097,0.039c-0.035,0-0.063-0.01-0.087-0.028
		l-0.027-0.021c-0.272-0.215-0.567-0.444-0.876-0.668l-0.116-0.081c-0.054-0.043-0.069-0.104-0.05-0.16
		c0.02-0.056,0.07-0.093,0.131-0.093l0.15,0.007C158.248,99.246,158.293,99.246,158.339,99.246z M159.177,101.356
		c0.073,0.094,0.107,0.21,0.089,0.325c-0.016,0.112-0.074,0.215-0.166,0.286c-0.11,0.084-0.312,0.205-0.57,0.339
		c-0.066,0.034-0.137,0.049-0.205,0.049c-0.17,0-0.316-0.091-0.396-0.239c-0.051-0.103-0.059-0.22-0.021-0.331
		c0.037-0.11,0.111-0.203,0.218-0.255c0.104-0.055,0.352-0.184,0.444-0.253C158.75,101.139,159.039,101.176,159.177,101.356z
		 M159.036,102.355c0.164-0.054,0.312-0.126,0.335-0.142c0.148-0.142,0.455-0.148,0.603-0.01c0.175,0.166,0.194,0.422,0.044,0.599
		c-0.154,0.175-0.469,0.305-0.707,0.387c-0.045,0.01-0.088,0.021-0.138,0.021c-0.188,0-0.354-0.12-0.413-0.304
		C158.68,102.681,158.811,102.431,159.036,102.355z M159.491,100.665l-0.087-0.076c-0.047-0.04-0.067-0.101-0.043-0.154
		c0.018-0.054,0.07-0.093,0.129-0.093l0.121,0.003c0.091,0,0.186-0.009,0.271-0.019l0.035-0.003
		c0.094-0.006,0.188-0.015,0.281-0.015c0.181,0,0.438,0.025,0.607,0.227c0.121,0.153,0.141,0.357,0.141,0.517
		c0,0.05-0.015,0.082-0.039,0.108c-0.1,0.112-0.188,0.196-0.262,0.269l-0.027,0.031c-0.024,0.025-0.062,0.039-0.094,0.039
		c-0.039,0-0.074-0.016-0.099-0.039l-0.028-0.023C160.145,101.212,159.867,100.974,159.491,100.665z M160.862,101.665l0.101-0.099
		c0.023-0.025,0.057-0.041,0.087-0.041c0.094-0.014,0.168-0.019,0.235-0.019c0.262,0,0.451,0.083,0.582,0.262
		c0.131,0.17,0.111,0.409,0.082,0.618c-0.004,0.04-0.018,0.067-0.035,0.085l-0.09,0.104c-0.023,0.026-0.061,0.041-0.098,0.046
		c-0.044,0-0.078-0.012-0.106-0.039l-0.03-0.032c-0.221-0.219-0.446-0.435-0.688-0.656l-0.036-0.027
		c-0.024-0.028-0.041-0.061-0.041-0.099C160.822,101.732,160.839,101.69,160.862,101.665z M161.878,99.88
		c-0.021,0.042-0.064,0.067-0.104,0.069h-0.006c-0.053,0-0.088-0.015-0.113-0.046l-0.107-0.124
		c-0.055-0.075-0.122-0.153-0.184-0.234l-0.131-0.184c-0.042-0.051-0.038-0.123,0.008-0.175c0.03-0.028,0.064-0.047,0.101-0.047
		c0.022,0,0.064,0.014,0.074,0.025l0.526,0.338c0.062,0.042,0.08,0.118,0.05,0.182L161.878,99.88z M161.506,97.487l-0.029-0.025
		c-0.043-0.041-0.048-0.108-0.02-0.163l0.02-0.028c0.09-0.154,0.213-0.295,0.32-0.441c0.329,0.408,0.641,0.83,0.932,1.267
		l-0.013,0.022c-0.019,0.036-0.052,0.064-0.089,0.069c-0.012,0.002-0.023,0.002-0.033,0.002c-0.029,0-0.061-0.007-0.082-0.028
		l-0.035-0.025c-0.09-0.062-0.193-0.12-0.338-0.207C161.906,97.798,161.67,97.659,161.506,97.487z M164.477,101.483l-0.022,0.038
		c-0.039,0.065-0.073,0.131-0.114,0.222l-0.025,0.051c-0.014,0.033-0.045,0.06-0.082,0.073c-0.01,0.005-0.033,0.005-0.041,0.005
		c-0.031,0-0.059-0.008-0.082-0.027l-0.033-0.02c-0.258-0.165-0.516-0.342-0.771-0.518l-0.029-0.016
		c-0.055-0.044-0.076-0.121-0.043-0.182l0.029-0.065c0.045-0.087,0.087-0.173,0.129-0.263l0.023-0.052
		c0.018-0.038,0.052-0.065,0.092-0.078c0.035-0.01,0.086,0,0.123,0.029l0.033,0.028c0.266,0.193,0.515,0.385,0.753,0.573l0.026,0.02
		c0,0.003,0.002,0.005,0.003,0.007C164.495,101.353,164.509,101.427,164.477,101.483z M162.885,99.064l0.041,0.11
		c0.03,0.071,0.064,0.168,0.09,0.288l0.025,0.107c0.016,0.059-0.006,0.119-0.051,0.149c-0.021,0.012-0.062,0.023-0.084,0.023
		c-0.027,0-0.055-0.007-0.078-0.023l-0.28-0.192c-0.052-0.038-0.071-0.111-0.05-0.173l0.017-0.029
		c0.009-0.024,0.019-0.052,0.028-0.071c0.02-0.04,0.027-0.06,0.037-0.082l0.041-0.112c0.021-0.056,0.076-0.09,0.133-0.09
		C162.819,98.97,162.869,99.008,162.885,99.064z M164.615,101.902l0.033-0.077c0.001-0.004,0.004-0.008,0.006-0.012
		c0.037,0.1,0.076,0.198,0.112,0.298l-0.057-0.011c-0.037-0.009-0.069-0.037-0.095-0.073
		C164.598,101.983,164.598,101.941,164.615,101.902z M163.797,100.415l-0.035-0.03c-0.027-0.021-0.045-0.053-0.055-0.093
		c-0.006-0.035,0.004-0.071,0.027-0.101l0.023-0.034c0.033-0.046,0.073-0.074,0.107-0.118c0.113,0.227,0.229,0.451,0.334,0.682
		C164.065,100.619,163.949,100.527,163.797,100.415z M162.997,98.536c-0.04-0.025-0.054-0.066-0.054-0.109
		c0.026,0.043,0.057,0.086,0.084,0.131L162.997,98.536z M162.045,102.808l0.074-0.082c0.014-0.015,0.043-0.035,0.06-0.04
		c0.116-0.031,0.204-0.05,0.29-0.05c0.13,0,0.247,0.038,0.351,0.125c0.313,0.245,0.305,0.625,0.3,0.829
		c0,0.053-0.014,0.081-0.033,0.105l-0.082,0.091c-0.029,0.033-0.064,0.045-0.105,0.045c-0.037,0-0.075-0.012-0.102-0.04
		l-0.034-0.038c-0.231-0.252-0.464-0.495-0.691-0.726L162.045,103C161.994,102.948,161.991,102.863,162.045,102.808z
		 M163.114,100.621c-0.015,0.044-0.037,0.089-0.06,0.128c0,0-0.015,0.029-0.015,0.033l-0.047,0.093
		c-0.019,0.042-0.054,0.069-0.095,0.074c-0.009,0.002-0.025,0.002-0.029,0.002c-0.036,0-0.064-0.007-0.086-0.027l-0.043-0.029
		c-0.043-0.033-0.09-0.069-0.137-0.099l-0.084-0.071c-0.056-0.035-0.115-0.077-0.17-0.121c-0.051-0.04-0.098-0.084-0.145-0.128
		l0.047-0.095l-0.066,0.074l-0.023-0.025c-0.016-0.014-0.029-0.028-0.043-0.038l-0.027-0.022c-0.047-0.052-0.057-0.121-0.023-0.178
		l0.018-0.033c0.029-0.04,0.047-0.083,0.07-0.122l0.086-0.156c0.023-0.029,0.051-0.054,0.088-0.059
		c0.027-0.01,0.09,0.002,0.113,0.02l0.039,0.021c0.257,0.179,0.447,0.312,0.627,0.436l0.027,0.024
		c0.055,0.042,0.076,0.117,0.043,0.178l-0.015,0.024c-0.009,0.022-0.021,0.047-0.028,0.062
		C163.124,100.605,163.119,100.616,163.114,100.621z M163.194,104.029l0.033-0.03c0.015-0.01,0.023-0.02,0.032-0.024
		c0.025-0.024,0.08-0.089,0.154-0.175c0.052-0.061,0.105-0.077,0.15-0.061c0.098,0.008,0.186,0.03,0.276,0.068
		c0.396,0.191,0.396,0.457,0.358,0.734c-0.006,0.056-0.026,0.096-0.063,0.116c-0.03,0.018-0.04,0.028-0.05,0.037
		c-0.043,0.034-0.068,0.055-0.1,0.069c-0.004,0.005-0.018,0.023-0.027,0.032l-0.031,0.034c-0.026,0.031-0.064,0.044-0.105,0.044
		s-0.078-0.013-0.102-0.044l-0.16-0.19c-0.035-0.037-0.07-0.079-0.107-0.123c-0.039-0.037-0.07-0.079-0.111-0.116l-0.154-0.179
		C163.137,104.166,163.142,104.078,163.194,104.029z M164.123,105.052l0.044-0.023c0.013-0.005,0.029-0.016,0.047-0.029l0.05-0.038
		c0.016-0.009,0.057-0.021,0.078-0.021h0.106c0.385,0,0.623,0.032,0.95,0.221l0.188,0.115c0,0,0,0.001,0.001,0.001
		c0.011,0.071,0.017,0.146,0.026,0.217l-0.036,0.032c-0.235,0.241-0.446,0.422-0.633,0.538l-0.028,0.019
		c-0.016,0.013-0.057,0.023-0.076,0.023c-0.047,0-0.082-0.021-0.111-0.057l-0.242-0.304c-0.071-0.085-0.158-0.191-0.244-0.295
		l-0.156-0.187c-0.029-0.035-0.037-0.077-0.029-0.117C164.064,105.104,164.09,105.073,164.123,105.052z M159.141,94.334
		l-0.052-0.017c-0.042-0.021-0.071-0.053-0.083-0.091c-0.014-0.047-0.004-0.087,0.021-0.12l0.029-0.044
		c0.191,0.155,0.372,0.319,0.557,0.482C159.453,94.476,159.304,94.4,159.141,94.334z M157.806,94.189l0.114,0.037
		c0.057,0.02,0.094,0.069,0.098,0.126c0,0.061-0.033,0.113-0.09,0.134l-0.113,0.047c-0.273,0.102-0.519,0.158-0.749,0.158
		c-0.032,0-0.065,0-0.095-0.005l-0.06-0.005c-0.05-0.005-0.09-0.028-0.112-0.067c-0.023-0.039-0.025-0.084-0.01-0.133l0.061-0.118
		c0.024-0.057,0.053-0.107,0.08-0.163c0.023-0.04,0.041-0.072,0.057-0.104L157,94.064c0.027-0.052,0.089-0.085,0.15-0.075
		l0.049,0.015C157.4,94.06,157.602,94.125,157.806,94.189z M156.821,98.183c0.113-0.026,0.206-0.037,0.278-0.037
		c0.486,0,0.566,0.37,0.627,0.638c0.008,0.043,0.014,0.083,0.023,0.122l0.01,0.027c0.016,0.047-0.01,0.108-0.055,0.141l-0.104,0.071
		c-0.016,0.009-0.054,0.022-0.073,0.022c-0.026,0-0.052-0.009-0.078-0.022l-0.079-0.059c-0.249-0.161-0.469-0.312-0.697-0.449
		l-0.044-0.027c-0.038-0.028-0.062-0.065-0.067-0.102c0-0.042,0.01-0.084,0.037-0.11l0.035-0.042
		c0.02-0.013,0.028-0.031,0.042-0.044l0.063-0.083C156.764,98.203,156.789,98.189,156.821,98.183z M156.053,100.88l0.064-0.033
		c0.396-0.23,0.93-0.594,1.236-1.023l0.02-0.03c0.027-0.041,0.068-0.06,0.115-0.06c0.02,0,0.06,0.01,0.074,0.019l0.039,0.027
		c0.03,0.021,0.06,0.042,0.088,0.062c0.046,0.027,0.086,0.053,0.116,0.079c0.081,0.052,0.155,0.108,0.229,0.165l0.236,0.181
		c0.037,0.026,0.061,0.07,0.057,0.117c0,0.052-0.029,0.095-0.068,0.117l-0.059,0.032c-0.289,0.16-0.676,0.491-0.882,0.672
		c-0.07,0.06-0.127,0.108-0.164,0.138c-0.091,0.068-0.207,0.108-0.343,0.108c-0.072,0-0.145-0.012-0.229-0.035
		c-0.007,0-0.03-0.01-0.034-0.012c-0.109-0.062-0.208-0.116-0.294-0.166l-0.202-0.11c-0.043-0.027-0.07-0.073-0.07-0.124
		C155.982,100.951,156.01,100.908,156.053,100.88z M165.624,107.129c-0.017-0.017-0.044-0.03-0.083-0.04h-0.029
		c-0.065-0.01-0.113-0.062-0.121-0.127v-0.03c-0.005-0.037-0.015-0.068-0.029-0.082l-0.258-0.327
		c-0.023-0.028-0.032-0.067-0.027-0.109c0.004-0.035,0.027-0.066,0.055-0.087l0.039-0.026c0.153-0.103,0.32-0.25,0.491-0.414
		c0.06,0.457,0.106,0.916,0.132,1.381C165.738,107.22,165.682,107.183,165.624,107.129z M155.953,93.689l0.16,0.031
		c0.066,0.02,0.107,0.07,0.107,0.132c0.006,0.065-0.037,0.119-0.096,0.14l-0.156,0.049c-0.006,0-0.021,0.005-0.033,0.008
		l-0.033,0.011c-0.023,0.005-0.047,0.014-0.07,0.023c-0.291,0.116-0.605,0.247-0.877,0.247c-0.221,0-0.395-0.087-0.51-0.247
		l-0.011-0.021c-0.036-0.045-0.036-0.102-0.009-0.145l0.013-0.026c0.069-0.124,0.134-0.23,0.196-0.334l0.014-0.026
		c0.034-0.047,0.104-0.075,0.161-0.055h0.009C155.184,93.531,155.563,93.604,155.953,93.689z M154.668,98.213
		c0.016-0.033,0.047-0.061,0.08-0.072c0.027-0.01,0.088-0.005,0.112,0.01l0.207,0.102c0.089,0.044,0.179,0.086,0.267,0.129
		c0.086,0.047,0.163,0.096,0.243,0.143c0.077,0.044,0.138,0.078,0.192,0.113l0.039,0.02c0.059,0.033,0.084,0.111,0.055,0.179
		l-0.018,0.036c-0.006,0.01-0.011,0.022-0.014,0.028c-0.221,0.643-1.342,1.366-1.471,1.447c-0.043,0.022-0.064,0.029-0.091,0.029
		c-0.004,0-0.019,0-0.026-0.005c0,0-0.025-0.002-0.027-0.002c-0.128-0.037-0.245-0.071-0.368-0.097l-0.181-0.047
		c-0.045-0.009-0.082-0.047-0.098-0.091c-0.014-0.05-0.004-0.099,0.027-0.136l0.149-0.176l0.285-0.409
		c0.028-0.043,0.065-0.094,0.101-0.144c0.064-0.096,0.121-0.175,0.158-0.26L154.668,98.213z M150.394,112.286
		c0.011,0.274,0.006,0.679-0.058,1.069l-0.002,0.028c-0.011,0.058-0.052,0.104-0.108,0.114l-0.028,0.01
		c-0.404,0.087-0.822,0.141-1.238,0.146h-0.066c-0.047,0-0.091-0.023-0.115-0.059c-0.027-0.045-0.031-0.092-0.013-0.134l0.026-0.062
		c0.145-0.341,0.24-0.669,0.278-0.967l0.004-0.03c0.007-0.067,0.057-0.116,0.12-0.122l0.644-0.071
		c0.098-0.023,0.214-0.059,0.321-0.093l0.053-0.014c0.031-0.011,0.102,0.003,0.125,0.019c0.029,0.02,0.053,0.064,0.055,0.108
		L150.394,112.286z M144.737,111.132l0.03-0.027c0.056-0.053,0.134-0.053,0.188-0.008l0.03,0.025
		c0.023,0.02,0.037,0.038,0.056,0.059c0.018,0.018,0.031,0.026,0.041,0.036c0.159,0.151,0.341,0.28,0.596,0.435
		c0.18,0.124,0.379,0.204,0.55,0.28l0.04,0.015c0.066,0.026,0.101,0.104,0.076,0.17l-0.066,0.196l-0.064,0.137
		c-0.045,0.094-0.086,0.184-0.123,0.271l-0.02,0.042c-0.018,0.038-0.053,0.066-0.087,0.079c-0.011,0.005-0.034,0.008-0.042,0.008
		c-0.025,0-0.049-0.008-0.07-0.021l-0.041-0.028c-0.518-0.31-0.984-0.698-1.382-1.156l-0.027-0.026
		c-0.05-0.055-0.045-0.141,0.007-0.198l0.032-0.024C144.544,111.321,144.634,111.232,144.737,111.132z M144.746,108.249l0.204-0.175
		c0.056-0.045,0.141-0.04,0.189,0.01l0.029,0.028c0.133,0.137,0.287,0.271,0.474,0.418l0.032,0.022
		c0.059,0.044,0.072,0.13,0.027,0.191l-0.023,0.035c-0.053,0.074-0.106,0.151-0.164,0.236l-0.036,0.053
		c-0.021,0.029-0.061,0.06-0.106,0.06c-0.049,0-0.092-0.018-0.118-0.055l-0.034-0.049c-0.127-0.1-0.242-0.245-0.351-0.392
		l-0.087-0.117c-0.01-0.015-0.021-0.026-0.028-0.045h-0.002l-0.025-0.033C144.683,108.377,144.69,108.294,144.746,108.249z
		 M146.064,111.02c-0.15-0.101-0.333-0.226-0.506-0.377c0,0-0.023-0.014-0.053-0.047l-0.053-0.049
		c-0.059-0.045-0.068-0.129-0.025-0.19l0.154-0.198c0.029-0.038,0.071-0.055,0.114-0.055c0.015,0,0.054,0.008,0.065,0.017
		l0.026,0.015c0.315,0.16,0.621,0.283,0.898,0.37l0.04,0.015c0.07,0.02,0.113,0.097,0.094,0.169l-0.013,0.041
		c-0.04,0.141-0.081,0.278-0.128,0.414l-0.016,0.055c-0.012,0.039-0.044,0.071-0.085,0.085c-0.011,0.003-0.036,0.012-0.047,0.012
		c-0.026,0-0.054-0.012-0.075-0.021l-0.042-0.027C146.289,111.181,146.176,111.108,146.064,111.02z M146.043,109.614
		c-0.01-0.031,0-0.076,0.02-0.109l0.027-0.035c0.086-0.131,0.15-0.236,0.201-0.327l0.02-0.037c0.023-0.046,0.072-0.074,0.121-0.074
		c0.014,0,0.044,0.01,0.058,0.013l0.038,0.021c0.193,0.089,0.359,0.152,0.505,0.197l0.044,0.016c0.039,0.019,0.066,0.04,0.082,0.072
		c0.018,0.033,0.018,0.076,0.004,0.108l-0.016,0.045c-0.027,0.066-0.051,0.138-0.077,0.227l-0.055,0.231
		c-0.013,0.04-0.04,0.075-0.073,0.094c-0.016,0.008-0.049,0.014-0.062,0.014c-0.018,0-0.035,0-0.052-0.012l-0.046-0.016
		c-0.199-0.08-0.414-0.187-0.631-0.312l-0.044-0.024C146.074,109.685,146.05,109.653,146.043,109.614z M146.52,112.992l0.023-0.044
		c0.05-0.082,0.1-0.171,0.15-0.258l0.082-0.145l0.133-0.28c0.025-0.06,0.1-0.093,0.158-0.08l0.029,0.007
		c0.231,0.05,0.457,0.084,0.689,0.102c0.133,0.019,0.236,0.024,0.319,0.024l0.194-0.002c0.062,0,0.121,0.002,0.188,0.007h0.131
		c0.036,0,0.077,0.022,0.102,0.057c0.025,0.032,0.039,0.069,0.027,0.111l-0.008,0.05c-0.057,0.286-0.172,0.614-0.346,0.977
		l-0.017,0.023c-0.024,0.054-0.07,0.078-0.125,0.078l-0.047-0.002c-0.544-0.067-1.075-0.203-1.575-0.406l-0.046-0.019
		c-0.037-0.015-0.063-0.045-0.077-0.085C146.492,113.071,146.496,113.024,146.52,112.992z M145.871,106.901
		c-1.132,0-2.057-0.646-2.057-1.432c0-0.791,0.925-1.431,2.057-1.431c1.134,0,2.059,0.64,2.059,1.431
		C147.93,106.255,147.005,106.901,145.871,106.901z M144.114,110.177c0.071,0.094,0.143,0.192,0.223,0.288l0.018,0.021
		c0.042,0.053,0.042,0.124,0.006,0.174l-0.047,0.064c-0.031,0.033-0.057,0.062-0.078,0.087l-0.108,0.133
		c-0.025,0.029-0.069,0.044-0.107,0.044c-0.053-0.005-0.093-0.022-0.116-0.06l-0.033-0.052c-0.291-0.464-0.514-0.957-0.664-1.473
		l-0.01-0.03c-0.02-0.071,0.013-0.141,0.077-0.169l0.083-0.037c0.012-0.005,0.045-0.012,0.058-0.012c0.047,0,0.091,0.02,0.116,0.061
		l0.021,0.032C143.734,109.614,143.916,109.911,144.114,110.177z M154.285,97.134c0.006,0.049-0.018,0.099-0.059,0.129
		c-0.018,0.014-0.049,0.026-0.08,0.026c-0.014,0-0.041-0.009-0.053-0.013l-0.067-0.029c-0.366-0.155-0.735-0.299-1.108-0.425
		l-0.178-0.057c-0.062-0.023-0.102-0.087-0.092-0.15c0.006-0.064,0.058-0.113,0.12-0.121l0.13-0.017
		c0.012-0.003,0.023-0.006,0.027-0.006l0.195-0.02c0.41-0.039,0.696-0.049,0.988-0.029l0.047,0.005c0.034,0,0.07,0.018,0.096,0.044
		c0.023,0.035,0.038,0.067,0.033,0.104l-0.005,0.047c-0.017,0.159-0.017,0.313-0.005,0.438L154.285,97.134z M132.025,113.791
		l0.021,0.104c0.012,0.056-0.014,0.115-0.058,0.144c-0.017,0.014-0.059,0.023-0.078,0.023c-0.028,0-0.054-0.008-0.08-0.023
		l-0.049-0.037c-0.906-0.729-1.338-1.385-1.191-1.8c0.089-0.251,0.384-0.357,0.757-0.266c0.011,0.005,0.021,0.01,0.03,0.015
		c0.125,0.084,0.265,0.176,0.4,0.236l0.021,0.01c0.05,0.021,0.084,0.074,0.087,0.124v0.027
		C131.895,112.903,131.939,113.375,132.025,113.791z M134.125,119.582c-0.299-0.167-0.955-0.541-1.609-0.943
		c-0.619-0.895-1.158-1.846-1.611-2.846c0.894,0.725,1.716,1.332,1.771,1.369c0.069,0.061,0.176,0.035,0.222-0.028
		c0.027-0.035,0.036-0.075,0.031-0.121c-0.009-0.042-0.031-0.074-0.064-0.1c-0.064-0.053-0.285-0.214-0.584-0.443
		c-0.024-0.018-0.034-0.039-0.042-0.064c-0.023-0.023-0.08-0.07-0.2-0.155c-0.911-0.642-1.448-1.323-1.334-1.683
		c0.024-0.078,0.106-0.21,0.353-0.21c0.241,0,0.589,0.129,1.007,0.37l0.139,0.089l0.134,0.095c0.055,0.036,0.061,0.099,0.064,0.127
		c0.021,0.267,0.1,0.543,0.229,0.79c0.036,0.077,0.134,0.113,0.214,0.074c0.071-0.036,0.1-0.126,0.067-0.196l-0.049-0.129
		c-0.023-0.058-0.003-0.124,0.044-0.161c0.021-0.018,0.056-0.031,0.086-0.031c0.021,0,0.058,0.014,0.077,0.026l0.112,0.074
		c0.235,0.148,0.513,0.316,0.906,0.548c0.042,0.025,0.061,0.07,0.069,0.105c0.031,0.119,0.053,0.242,0.072,0.354
		c0.051,0.297,0.105,0.595,0.277,0.885c0.04,0.065,0.15,0.092,0.219,0.058c0.075-0.048,0.1-0.146,0.055-0.225
		c-0.103-0.168-0.149-0.338-0.192-0.556l-0.019-0.086c-0.01-0.055,0.01-0.106,0.053-0.144c0.024-0.012,0.052-0.026,0.083-0.026
		c0.018,0,0.054,0.012,0.071,0.021l0.076,0.037c0.434,0.238,0.848,0.442,1.259,0.642c0.044,0.018,0.072,0.063,0.079,0.111
		c0,0,0.005,0.037,0.002,0.062l0.042,0.197c0.083,0.475,0.175,0.926,0.354,1.351l0.044,0.101c0.025,0.054,0.013,0.121-0.03,0.158
		c-0.024,0.024-0.059,0.036-0.093,0.036c-0.019,0-0.054-0.01-0.07-0.014l-0.097-0.052c-0.32-0.153-0.603-0.308-0.807-0.43
		c-0.171-0.106-0.266-0.16-0.297-0.182c-0.062-0.038-0.162-0.025-0.207,0.044c-0.027,0.034-0.036,0.073-0.028,0.12
		c0.003,0.039,0.028,0.074,0.071,0.105c0.006,0.006,0.019,0.016,0.03,0.023c0.045,0.034,0.134,0.091,0.254,0.168
		c0.152,0.099,0.421,0.263,0.852,0.493c0.364,0.199,0.814,0.413,1.376,0.654l0.239,0.096c0.45,0.181,1.008,0.402,1.612,0.569
		c0.558,0.182,1.16,0.313,1.794,0.454l0.056,0.011c0.134,0.03,0.268,0.059,0.404,0.089l0.029,0.008
		c0.144,0.02,0.303,0.045,0.466,0.07l0.061,0.011c0.661,0.097,1.345,0.2,2.05,0.223c0.365,0.036,0.72,0.042,1.06,0.055h0.104
		c0.021,0,0.04,0.008,0.056,0.021l0.023,0.015c0-0.005,0.02,0,0.038,0c0.021,0,0.052,0,0.085-0.019l0.049-0.018
		c0.008-0.003,0.016-0.006,0.024-0.006c0.187,0,0.364-0.007,0.544-0.01l0.264-0.005c0.186-0.003,0.371-0.005,0.559-0.01
		c0.297-0.017,0.607-0.047,0.906-0.076l0.321-0.035h0.003c0.057,0,0.098,0.022,0.124,0.057c0.03,0.033,0.036,0.085,0.02,0.129
		l-0.026,0.067c-0.078,0.21-0.229,0.43-0.393,0.651c-0.082,0.117-0.17,0.247-0.248,0.379c-0.017,0.025-0.043,0.047-0.073,0.05
		l-0.066,0.005c-0.765,0.084-1.569,0.13-2.4,0.13c-3.034,0-5.49-0.573-5.513-0.579c-0.085-0.024-0.177,0.022-0.202,0.104
		c-0.011,0.044-0.01,0.08,0.01,0.121c0.019,0.035,0.055,0.068,0.091,0.082l0.283,0.085c0.117,0.033,0.374,0.113,0.768,0.21
		c0.597,0.147,1.565,0.352,2.796,0.501c1.318,0.151,2.681,0.197,4.013,0.146c0.797-0.032,1.638-0.114,2.494-0.233l0.065-0.01h0.007
		c0.051,0,0.087,0.014,0.113,0.043c0.033,0.037,0.044,0.086,0.03,0.133l-0.015,0.058c-0.082,0.323-0.174,0.584-0.307,0.841
		c-0.03,0.067-0.098,0.075-0.128,0.08c-0.599,0.07-1.155,0.135-1.661,0.173c-0.607,0.061-1.133,0.083-1.56,0.094l-0.134,0.01
		c-0.114,0.007-0.223,0.012-0.322,0.014c-0.338,0.01-0.57,0.016-0.69,0.018l-0.093,0.003c-0.071,0-0.133,0.049-0.148,0.122
		c-0.012,0.042-0.004,0.084,0.02,0.119c0.021,0.04,0.058,0.062,0.102,0.072l0.203,0.041c0.028,0.012,0.057,0.018,0.085,0.026
		c0.123,0.034,0.272,0.073,0.479,0.073c0.11,0.002,0.223,0.002,0.328,0.002c7.483,0,11.936-2.476,12.122-2.579
		c0.132-0.076,0.263-0.152,0.39-0.222c0.153-0.079,0.303-0.19,0.454-0.281c-3.267,2.763-7.51,4.398-12.125,4.317
		c-0.833-0.015-1.651-0.085-2.449-0.215c-4.797-0.729-8.959-3.332-11.764-7.017c0.475,0.28,0.858,0.495,0.951,0.547
		c0.078,0.047,0.181,0.02,0.224-0.054C134.229,119.721,134.2,119.626,134.125,119.582z"/>
</g>
</svg>
